<svg width="323" height="628" viewBox="0 0 323 628" fill="none" xmlns="http://www.w3.org/2000/svg">
<g opacity="0.1">
<path d="M129.325 425.652C128.927 421.916 128.566 418.177 128.256 414.433C128.552 413.395 128.826 412.358 129.097 411.317C129.201 416.094 129.275 420.873 129.325 425.652Z" fill="#011953"/>
<path d="M125.639 302.782C125.537 302.782 125.537 302.613 125.639 302.613C125.743 302.613 125.743 302.782 125.639 302.782Z" fill="#011953"/>
<path d="M143.321 184.822C143.804 184.351 144.287 183.88 144.769 183.409C146.485 181.735 148.889 184.297 147.317 186.124C146.874 186.638 146.434 187.151 145.991 187.667C144.343 189.581 141.521 186.576 143.321 184.822Z" fill="#011953"/>
<path d="M133.975 159.483C131.13 157.352 128.306 155.183 125.458 153.052C125.515 153.94 125.45 154.856 125.405 155.863C125.346 157.197 123.523 157.946 122.89 156.588C121.787 154.214 119.868 151.986 118.971 149.471C118.517 150.103 117.808 150.554 116.815 150.582C115.808 150.613 114.811 150.559 113.818 150.472C113.872 150.128 113.917 149.764 113.954 149.361C113.965 149.279 113.976 149.201 113.982 149.119V149.11L113.979 149.093C113.987 148.89 113.965 148.685 113.92 148.479C113.908 148.431 113.9 148.388 113.886 148.343C113.838 148.163 113.767 147.985 113.674 147.808C113.654 147.771 113.64 147.732 113.621 147.695C113.558 147.591 113.479 147.489 113.4 147.388C113.321 147.28 113.245 147.173 113.155 147.083C111.767 145.611 110.378 144.179 108.97 142.806C110.787 143.144 112.644 143.364 114.549 143.443C114.992 143.46 115.364 143.333 115.703 143.15C115.824 143.226 115.951 143.291 116.073 143.367C116.005 143.26 115.94 143.156 115.872 143.048C116.183 142.843 116.434 142.563 116.632 142.242C116.115 142.465 115.511 142.425 115.006 141.876C112.317 138.946 109.351 136.07 106.721 132.952C106.961 137.246 107.051 141.543 106.769 145.761C106.752 146.012 106.577 146.172 106.38 146.243C110.858 148.747 114.501 152.547 117.856 156.641C119.039 158.082 120.503 159.841 121.861 161.758C122.422 160.202 124.262 160.205 125.213 161.135C125.444 161.141 125.676 161.183 125.901 161.242C126.381 161.519 126.861 161.789 127.346 162.054C127.888 162.587 128.266 163.332 128.303 164.268C128.531 169.974 128.165 175.763 127.617 181.551C128.723 182.769 129.858 183.953 130.998 185.132C131.613 185.332 132.177 185.727 132.561 186.279C134.13 185.039 136.458 187.678 134.903 189.254C135.778 190.21 136.642 191.18 137.468 192.2C138.213 193.117 137.291 194.394 136.269 193.858C135.812 193.618 135.369 193.334 134.92 193.066C135.194 193.396 135.485 193.706 135.75 194.047C136.089 194.484 136.001 195.017 135.71 195.333C136.543 195.536 137.477 195.375 138.256 195.147C139.204 194.87 140.017 192.623 140.736 191.687C143.188 188.504 146.882 192.567 145.629 195.708C145.463 196.122 145.288 196.511 145.107 196.881C149.555 196.311 153.982 195.77 158.387 194.504C159.183 194.275 160.216 194.78 160.377 195.708C160.859 198.462 161.601 201.093 162.423 203.695C162.411 202.503 162.4 201.318 162.355 200.154C162.123 194.391 161.895 188.656 161.951 182.888C161.971 180.841 164.652 180.951 164.861 182.888C165.482 188.636 165.82 194.383 166.156 200.154C166.449 205.164 167.384 210.417 166.235 215.323C165.902 216.741 164.144 216.541 163.729 215.323C163.695 215.227 163.676 215.128 163.647 215.032C162.947 215.044 162.25 214.66 161.999 213.744C160.622 208.708 159.767 203.636 158.049 198.741C156.635 199.635 155.111 200.349 153.539 200.89C154.597 205.097 155.331 209.78 155.692 214.547C155.757 214.108 155.831 213.671 155.893 213.231C155.912 213.076 156.13 213.124 156.135 213.264C156.392 218.717 156.99 224.114 157.211 229.564C155.678 228.574 153.144 229.321 153.144 231.817V249.309C153.11 249.247 153.068 249.187 153.043 249.12C151.649 245.581 151.903 241.62 152.371 237.721C152.365 237.456 152.357 237.193 152.351 236.928C151.807 236.751 151.321 236.328 151.121 235.679C150.864 234.839 150.647 233.94 150.427 233.046V211.562C150.427 210.129 149.589 209.281 148.587 208.996C148.748 206.534 148.985 204.121 149.346 201.84C146.727 202.13 144.077 201.871 141.588 200.859C141.089 201.158 140.55 201.431 139.943 201.662C137.291 202.675 134.328 201.975 131.873 200.763C127.829 198.764 126.17 193.695 126.979 189.291C126.931 189.24 126.883 189.183 126.836 189.13C126.409 192.942 125.972 196.74 125.631 200.489C125.272 204.417 124.987 208.497 124.578 212.582C124.507 221.658 124.595 231.492 121.931 239.559C122.653 239.128 123.531 238.93 124.301 238.989C125.261 239.065 126.218 239.113 127.177 239.156C127.087 241.014 126.999 242.875 126.923 244.733C126.251 244.761 125.58 244.789 124.911 244.843C123.125 244.981 120.492 244.425 120.492 241.941C120.492 241.905 120.506 241.871 120.506 241.834C120.125 242.271 119.871 242.855 119.871 243.627V252.822C119.49 252.72 119.092 252.692 118.711 252.76C118.686 251.172 118.644 249.591 118.581 248.006C118.675 247.71 118.737 247.383 118.737 247.002V187.932C118.737 187.644 118.683 187.382 118.607 187.134C118.776 184.292 118.996 181.455 119.253 178.624C115.966 172.898 113.448 166.707 111.874 161.245C111.803 160.997 111.809 160.78 111.857 160.588C111.242 158.846 110.703 157.132 110.234 155.463C109.853 154.605 109.472 153.745 109.089 152.925C108.88 152.477 109.199 152.096 109.546 152.071C108.197 150.734 106.837 149.412 105.502 148.061C105.107 148.467 104.348 148.36 104.116 147.678C103.944 147.173 103.812 146.646 103.656 146.13C103.543 146.009 103.428 145.893 103.318 145.769C103.137 145.572 103.188 145.265 103.346 145.081C102.031 140.415 101.272 135.422 100.685 130.406C101.791 131.28 103.812 130.685 103.764 129.041C103.713 128.968 103.668 128.892 103.62 128.816C103.196 129.306 102.477 129.546 101.935 129.137C98.2327 126.34 95.4192 122.548 93.3113 118.195C93.1306 118.09 92.967 117.941 92.8456 117.73C88.7426 110.706 88.1415 101.535 87.2159 93.4539C86.2029 84.598 85.7683 74.6988 88.5281 66.1699C88.7172 65.5834 89.6033 65.2987 89.8967 65.9782C90.1027 66.4772 90.3398 66.9593 90.5543 67.4528C91.7648 67.0383 93.2209 67.4443 93.4495 69.0599C94.3977 75.6997 95.3628 82.3367 96.2348 88.9879C97.0249 95.0187 98.5939 101.261 97.4764 107.3C97.4707 107.331 97.451 107.357 97.4453 107.388C97.8969 110.289 98.275 113.216 98.3455 116.103C98.529 116.447 98.7067 116.793 98.8902 117.137C99.0002 117.14 99.1131 117.143 99.226 117.191C100.99 117.927 102.463 119.134 103.806 120.521C103.806 120.493 103.803 120.462 103.803 120.433C103.752 119.06 105.68 119.097 105.784 120.433C105.852 121.276 105.92 122.142 105.987 122.994C106.543 123.659 107.093 124.33 107.647 124.978C109.438 127.073 111.103 129.272 112.746 131.494C112.921 130.471 113.115 129.332 113.251 127.992C113.671 123.828 113.973 119.686 114.066 115.528C115.003 115.869 116.118 115.542 116.383 114.208C116.804 112.116 117.266 110.035 117.746 107.96C117.797 108.039 117.845 108.121 117.907 108.191C117.769 108.716 117.611 109.232 117.478 109.759C117.306 110.441 117.43 110.999 117.712 111.417C117.549 113.836 117.439 116.272 117.41 118.736C117.396 119.979 118.299 120.645 119.23 120.682C119.174 120.98 119.118 121.276 119.061 121.575C118.858 122.655 119.403 123.467 120.131 123.853C119.702 124.742 119.321 125.658 119.061 126.636C118.776 127.719 119.476 128.725 120.354 129.081C120.441 129.312 120.554 129.532 120.709 129.732C121.319 130.505 122.32 130.431 123.06 129.977C123.051 130.014 123.043 130.053 123.032 130.09C122.45 132.444 119.177 131.646 119.307 129.47C118.409 129.726 117.43 129.628 116.685 129.171C116.126 131.274 115.621 133.44 115.455 135.16C115.621 135.385 115.785 135.611 115.954 135.833C116.505 136.569 116.231 137.415 115.681 137.787C116.208 138.357 116.736 138.921 117.266 139.473C117.537 139.755 117.647 140.071 117.693 140.384C118.982 141.921 120.275 143.457 121.564 144.991C122.219 145.851 122.874 146.708 123.528 147.568C123.235 148.011 123.043 148.535 123.043 149.113C123.043 149.663 123.102 150.142 123.195 150.59C123.226 150.52 123.246 150.452 123.28 150.385C123.48 149.967 124.095 149.773 124.465 150.055C127.911 152.688 131.424 155.223 134.892 157.822C135.832 158.527 134.932 160.199 133.975 159.483ZM114.566 159.382C116.637 162.582 118.697 165.892 120.359 169.286C120.483 168.503 120.625 167.727 120.763 166.949C119.592 165.463 118.485 163.912 117.351 162.46C116.375 161.209 115.314 159.906 114.264 158.578C114.366 158.846 114.461 159.117 114.566 159.382Z" fill="#011953"/>
<path d="M172.865 115.928V117.044C172.865 118.719 174.411 119.286 175.529 118.804C175.847 118.947 176.192 118.998 176.539 118.964C176.66 119.15 176.798 119.322 176.897 119.523C179.073 120.047 180.323 122.658 180.591 124.851C180.619 125.071 180.628 125.288 180.642 125.506C181.017 125.272 181.519 125.291 181.731 125.804C183.991 131.285 184.169 137.133 181.765 142.651C179.993 146.719 176.722 151.687 172.441 153.238C172.382 153.864 171.826 154.383 171.211 154.185C170.841 154.067 170.494 153.9 170.156 153.712C170.074 153.717 169.992 153.731 169.91 153.734C169.413 153.745 169.049 153.351 168.939 152.894C167.754 151.93 166.73 150.667 165.725 149.556C164.955 148.701 164.232 147.819 163.518 146.925C163.214 147.106 162.858 147.168 162.505 147.1C162.632 147.331 162.723 147.596 162.745 147.915C162.757 148.061 162.754 148.202 162.765 148.349C163.056 149 163.335 149.674 163.586 150.385C164.326 149.905 165.533 150.089 165.742 151.171C166.205 153.587 166.529 156.421 166.577 159.345C166.899 160.117 167.226 160.887 167.596 161.637C168.138 162.742 167.466 163.729 166.617 163.989C162.181 162.725 158.202 160.024 155.38 155.914C156.213 155.243 157.101 154.65 158.052 154.174C158.052 154.07 158.055 153.965 158.055 153.858C158.021 153.393 157.956 152.939 157.937 152.468C157.787 152.223 157.677 151.938 157.688 151.563C157.671 148.445 157.652 145.301 157.7 142.157C157.279 141.571 156.932 140.959 156.65 140.33C156.359 140.387 156.06 140.426 155.741 140.426C152.948 140.426 151.108 138.072 150.902 135.269C150.868 134.818 150.837 134.37 150.803 133.919C150.653 131.894 151.929 130.121 153.58 129.244C153.535 129.202 153.489 129.171 153.444 129.129C153.165 128.855 151.957 127.104 152.68 128.097C151.52 126.504 150.978 124.804 151.147 122.768C151.28 121.144 151.731 119.579 152.553 118.195C153.354 116.836 154.407 116.204 155.569 115.319C156.004 114.986 156.447 114.797 156.884 114.701C157.827 113.199 158.899 111.862 160.048 110.531C160.623 110.723 161.281 110.622 161.839 110.032C163.617 108.16 165.519 106.133 167.805 104.974C170.108 103.807 170.822 105.042 171.346 107.452C171.742 109.274 173.728 109.229 174.62 108.126C174.637 108.202 174.668 108.276 174.682 108.349C174.699 108.431 174.702 108.521 174.716 108.603C176.477 107.825 178.98 109.333 180.094 110.799C181.198 112.251 181.782 114.101 181.607 115.855C182.042 116.658 182.343 117.538 182.623 118.46C182.82 119.114 183.057 119.881 183.057 120.574C183.057 121.169 182.682 121.843 182.724 122.246C182.809 123.022 181.627 123.357 181.328 122.649C181.198 122.342 180.749 122.071 180.475 121.713C180.041 121.147 179.838 120.385 179.68 119.664C179.578 119.635 179.476 119.61 179.369 119.537C179.352 119.525 179.335 119.514 179.335 119.514C178.635 119.585 177.981 119.097 177.732 118.429C177.732 118.429 177.716 118.417 177.71 118.412C178.02 118.088 178.238 117.642 178.238 117.039V116.182L178.407 116.294C178.822 115.471 178.655 114.49 178.235 113.644C178.226 112.308 177.219 111.676 176.242 111.724C175.963 111.608 175.675 111.513 175.376 111.442C175.371 111.896 175.015 112.387 174.462 112.271C174.42 112.262 174.374 112.254 174.332 112.243C174.197 112.581 174.03 112.9 173.833 113.193C173.974 113.286 174.109 113.385 174.25 113.481C173.548 113.661 172.969 114.222 172.893 115.167C172.647 114.992 172.391 114.831 172.162 114.639C172.083 114.715 172.01 114.803 171.925 114.873C172.018 115.127 172.094 115.386 172.145 115.657C172.396 115.725 172.628 115.838 172.865 115.928ZM160.795 140.483C161.134 140.144 161.509 139.834 161.806 139.561C162.223 139.177 162.582 138.757 162.909 138.32C162.536 138.548 162.139 138.692 161.718 138.732C161.411 139.002 161.097 139.267 160.759 139.47C160.77 139.806 160.787 140.144 160.795 140.483ZM171.056 120.281C170.951 119.241 170.466 118.657 169.823 118.412L171.349 116.785C173.082 114.941 170.398 112.082 168.666 113.926L163.911 118.99C163.154 119.796 163.239 120.791 163.722 121.508C163.194 121.815 162.711 122.139 162.282 122.5C163.03 122.692 163.778 122.883 164.526 123.075C164.63 122.903 164.735 122.734 164.828 122.548C166.196 119.821 170.051 122.235 168.708 124.964C167.162 128.102 163.679 131.187 160.208 130.668C160.273 131.432 160.462 132.095 160.75 132.667C160.756 132.814 160.784 132.963 160.798 133.11C160.888 133.017 160.979 132.924 161.066 132.833C161.521 132.379 161.972 131.923 162.426 131.469C163.383 130.507 164.416 130.71 165.601 130.896C165.993 130.958 166.45 131.443 166.51 131.863C166.685 133.127 166.877 134.226 165.974 135.244C165.547 135.726 165.119 136.208 164.692 136.69C164.28 137.156 163.82 137.646 163.315 138.032C163.513 138.266 163.713 138.498 163.916 138.72C164.602 139.468 165.44 139.451 166.095 139.047C165.928 139.386 165.768 139.727 165.57 140.046C166.326 139.499 167.091 138.969 167.864 138.447C167.624 138.055 167.382 137.663 167.142 137.274C167.15 137.009 167.102 136.741 166.992 136.476C168.059 136.752 169.126 136.986 170.079 137.246C170.257 137.539 170.435 137.835 170.61 138.128C170.652 138.199 170.655 138.266 170.686 138.334C170.734 138.433 170.771 138.532 170.796 138.636L170.802 138.67C170.884 139.053 170.81 139.462 170.452 139.766C169.25 140.79 168.07 141.847 166.823 142.809C166.321 143.198 165.801 143.623 165.262 144.004C166.171 144.858 167.068 145.724 167.938 146.637C168.671 145.983 169.563 145.583 170.449 145.135C171.747 144.481 173.04 143.863 174.372 143.294C175.148 142.961 175.514 144.201 174.908 144.647C173.782 145.476 172.642 146.24 171.471 146.996C170.81 147.421 170.173 147.836 169.498 148.149C170.506 148.363 171.51 148.611 172.506 148.902C174.609 147.111 176.612 145.38 178.212 142.696C178.175 142.637 178.139 142.577 178.136 142.496C178.128 138.65 178.717 134.801 179.211 130.989C179.019 131.266 178.808 131.534 178.573 131.79C178.508 131.925 178.398 132.027 178.238 132.069C177.332 132.597 176.226 131.277 177.055 130.358C178.331 128.94 178.762 127.076 178.449 125.156C178.319 124.355 178.009 123.687 177.639 123.058C177.177 124.014 175.413 123.78 175.241 122.373C175.069 120.969 174.225 119.799 173.158 119.015C172.856 118.795 172.54 118.629 172.213 118.496C172.032 119.266 171.606 119.954 171.053 120.515C171.053 120.439 171.064 120.36 171.056 120.281Z" fill="#011953"/>
<path d="M199.741 164.253C200.503 164.859 200.887 165.933 200.221 167.016C199.487 168.211 198.671 169.291 197.794 170.286C198.209 171.411 198.008 172.756 196.713 173.518C191.106 176.825 184.551 182.345 177.987 182.799C176.971 182.87 176.127 181.429 176.757 180.518C176.965 180.214 177.225 179.946 177.459 179.658C176.113 179.771 174.767 179.873 173.424 180C171.547 180.177 169.29 180.558 167.427 179.952C165.226 180.518 163.147 177.941 164.428 175.762C164.865 175.018 165.345 174.31 165.858 173.63C165.015 173.165 164.196 172.644 163.398 172.091C162.816 173.255 162.117 174.321 161.256 175.229C161.149 175.342 161.036 175.424 160.923 175.48C161.792 176.549 162.557 177.668 163.07 178.875C163.544 179.988 162.588 181.048 161.53 180.516C160.559 180.028 159.653 179.337 158.784 178.556C158.386 178.903 157.889 179.128 157.294 179.131C154.799 179.142 152.262 178.443 149.788 177.394C149.37 177.628 148.831 177.654 148.368 177.268L146.827 175.982C146.303 175.703 145.809 175.39 145.292 175.097C145.256 176.097 145.191 177.09 145.05 178.046C144.925 178.883 143.833 178.711 143.616 178.046C143.156 176.619 142.829 175.091 142.595 173.509C141.596 172.886 140.611 172.26 139.688 171.668C136.381 169.551 131.716 166.813 129.371 163.1C132.532 164.673 135.802 165.978 139.211 166.974C139.434 167.038 139.646 167.069 139.849 167.081C140.484 167.523 141.119 167.96 141.759 168.383C141.883 168.465 142.002 168.505 142.123 168.561C142.115 168.389 142.109 168.217 142.104 168.042C141.892 168.11 141.658 168.09 141.44 167.927C138.697 165.885 135.407 163.948 133.296 161.137C132.932 160.655 133.251 159.649 133.948 159.947C136.942 161.236 139.513 163.765 142.027 165.939C141.993 164.625 141.979 163.362 141.965 162.102C141.725 162.023 141.491 161.93 141.251 161.859C140.949 161.769 140.808 161.526 140.786 161.267C140.52 161.385 140.154 161.261 140.12 160.853C140.077 160.359 140.25 159.911 140.566 159.556C140.653 159.457 140.769 159.381 140.873 159.302C140.907 159.276 140.924 159.271 140.944 159.262C140.952 159.248 140.955 159.243 140.963 159.223C140.983 159.186 141.014 159.161 141.04 159.127C140.509 158.882 139.987 158.62 139.502 158.287C138.954 157.915 138.971 156.874 139.694 156.719C141.545 156.322 143.486 156.998 145.244 157.886C145.295 158.487 145.527 159.065 145.989 159.508C147.273 160.726 148.93 161.786 150.724 162.674C151.012 161.983 151.362 161.321 151.74 160.681C155.877 166.133 161.916 169.379 168.387 170.14C168.455 170.287 168.534 170.427 168.596 170.574C168.723 170.45 168.864 170.337 168.993 170.213C170.094 170.318 171.206 170.34 172.321 170.298C172.747 171.499 174.039 172.395 175.221 172.094C175.173 171.73 175.131 171.364 175.089 170.997C174.953 170.693 174.807 170.405 174.677 170.095C174.776 170.081 174.877 170.055 174.976 170.041C174.781 168.175 174.637 166.303 174.493 164.43C174.025 164.507 173.557 164.605 173.085 164.648C172.876 163.469 172.718 162.288 172.682 161.115C172.295 159.508 171.954 157.892 171.57 156.339C171.259 155.075 172.755 154.472 173.43 155.267C173.604 154.731 173.779 154.199 174.019 153.705C174.352 153.02 175.461 153.144 175.602 153.925C175.769 154.85 175.834 155.783 175.87 156.722C176.229 156.761 176.57 156.976 176.675 157.402C177.16 159.384 177.722 161.445 178.221 163.531C178.179 163.545 178.139 163.551 178.097 163.565C178.461 165.406 178.836 167.244 179.155 169.097C179.189 169.085 179.223 169.08 179.257 169.068C179.308 169.46 179.387 169.852 179.423 170.244C180.405 169.759 181.384 169.263 182.344 168.733C183.075 168.885 183.868 168.682 184.531 167.944C184.807 167.636 185.056 167.315 185.327 167.005C185.818 166.709 186.297 166.384 186.786 166.08C185.821 167.788 184.878 169.514 183.952 171.248C185.101 171.056 186.241 170.876 187.291 170.585C188.549 169.404 189.856 168.271 191.05 167.005C193.304 164.614 195.373 162.212 197.444 159.64C198.31 158.563 199.642 159.031 200.26 160.01C201.096 159.434 201.945 158.879 202.786 158.312C203.751 157.664 204.772 159.13 203.985 159.97C202.6 161.447 201.259 162.947 199.741 164.253ZM143.955 160.37C143.955 160.472 143.941 160.573 143.921 160.672C143.96 160.94 144.003 161.219 144.045 161.49C144.491 161.696 144.917 161.941 145.352 162.172C145.462 161.828 145.718 161.538 146.032 161.394C145.363 160.994 144.666 160.664 143.955 160.37ZM146.232 164.123C145.6 163.72 144.951 163.345 144.276 163.021C144.511 164.591 144.742 166.184 144.931 167.803C145.247 167.391 145.481 166.898 145.572 166.37C146.856 167.137 148.179 167.85 149.508 168.555C149.508 168.445 149.52 168.335 149.522 168.223C148.374 166.897 147.259 165.541 146.232 164.123Z" fill="#011953"/>
<path d="M167.833 146C167.943 146 167.943 146.183 167.833 146.183C167.722 146.183 167.722 146 167.833 146Z" fill="#011953"/>
<path d="M253.014 90.4762C251.979 90.8709 250.98 91.2741 249.936 91.6462C249.73 91.7195 249.527 91.6829 249.349 91.5898C249.295 91.6011 249.242 91.618 249.188 91.6293C249.154 92.0635 249.117 92.5146 249.072 92.9968C248.979 93.9582 248.847 94.9055 248.711 95.8557C248.793 96.0531 248.897 96.2279 248.968 96.4393C249.16 97.0032 248.847 97.4797 248.415 97.7222C248.014 100.074 247.498 102.397 246.882 104.698C247.517 105.369 247.726 106.564 247.029 107.463C246.612 108.002 246.166 108.462 245.7 108.862C245.754 112.147 245.805 115.434 245.858 118.719C245.869 119.412 245.703 119.973 245.429 120.416C245.328 121.925 245.04 123.382 244.224 124.705C243.564 125.776 241.865 125.83 241.374 124.6C241.326 124.518 241.292 124.434 241.247 124.349C240.502 124.442 239.735 124.22 239.269 123.639C237.141 129.557 235.663 135.669 232.13 140.902C231.957 141.156 231.698 141.229 231.469 141.179C230.925 143.519 230.659 145.893 230.202 148.239C230.219 156.057 228.656 164.995 223.023 168.705C222.939 168.762 222.848 168.759 222.761 168.784C220.678 172.599 218.503 176.343 216.191 179.983C216.095 180.259 215.946 180.505 215.748 180.702C215.619 180.902 215.503 181.114 215.37 181.317C215.353 181.345 215.325 181.359 215.305 181.384C217.114 191.346 218.92 201.927 218.11 211.668C218.788 221.996 218.847 232.411 217.066 242.169C216.956 242.767 216.344 242.925 215.898 242.708C215.565 245.178 214.998 247.515 213.914 249.39C213.807 249.573 213.677 249.703 213.536 249.81C213.951 255.322 214.21 260.981 212.331 265.994C212.046 266.755 211.205 267.254 210.502 267.082C209.921 270.539 209.193 274.038 209.027 277.463C208.948 279.079 207.491 280.582 205.897 280.004C204.56 279.516 203.219 279.034 201.882 278.546C201.794 280.633 201.563 282.716 201.357 284.786C201.168 286.686 201.043 288.691 200.575 290.56C200.708 293.831 200.668 297.118 200.671 300.363C200.677 307.279 201.692 314.971 199.731 321.619C199.359 322.882 197.705 322.882 197.333 321.619C196.794 319.789 196.517 317.895 196.368 315.975C196.238 315.602 196.116 315.222 196.009 314.836C193.814 340.789 196.449 367.255 190.173 392.743C190.12 391.613 190.08 390.482 190.013 389.354C190.495 382.393 190.608 375.418 190.439 368.439C191.435 346.013 190.749 323.424 191.627 301.014C191.706 298.999 189.412 297.735 187.874 298.435C186.367 298.406 185.004 297.372 185.241 295.305C186.536 283.968 187.924 272.634 189.163 261.288C187.84 260.879 186.578 260.361 185.32 259.729C183.751 258.942 182.317 258.294 181.307 256.732C180.96 256.193 181.121 255.435 181.538 254.978C181.479 254.894 181.426 254.803 181.369 254.719C180.15 253.955 178.922 253.196 177.732 252.387C176.326 251.431 174.938 250.656 173.931 249.212C173.358 248.392 174.3 247.586 175.02 247.701C176.577 247.952 177.839 248.913 179.191 249.723C179.538 249.931 179.876 250.154 180.218 250.368C180.254 250.202 180.294 250.036 180.356 249.872C180.658 249.069 181.417 248.637 182.185 249.08C183.957 250.1 184.925 252.613 186.395 254.099C187.343 255.057 188.472 255.81 189.682 256.343C189.855 254.702 190.038 253.061 190.202 251.42C190.498 248.437 193.215 247.422 195.061 248.445C195.115 240.449 194.722 232.445 193.958 224.494C193.783 222.678 194.474 221.421 195.529 220.705C195.541 220.614 195.555 220.524 195.566 220.434C195.366 218.731 195.179 217.028 194.982 215.336C194.903 214.657 194.773 214 194.672 213.329C192.939 209.909 192.428 205.556 191.553 201.888C190.3 196.635 187.261 189.459 189.265 184.238C189.293 184.246 189.321 184.255 189.349 184.263C189.544 183.451 190.303 182.817 191.105 183.443C191.15 183.476 191.181 183.522 191.223 183.558C191.836 182.554 193.537 182.289 194.048 183.561C196.057 188.58 197.527 193.807 198.825 199.082L198.834 199.119C200.778 189.482 203.803 180.158 206.642 170.727C206.27 169.901 205.897 169.077 205.505 168.282C204.845 166.937 204.212 165.584 203.6 164.222C204.833 162.646 205.976 160.988 206.984 159.175C207.269 159.641 207.531 160.126 207.813 160.594C208.146 156.846 209.247 153.004 210.15 149.454C210.364 148.608 211.056 147.793 211.885 147.607C212.958 147.367 213.449 147.531 214.267 148.258C214.278 147.74 214.4 147.218 214.71 146.758C215.689 145.309 217.267 144.951 218.607 146.079C218.844 146.279 218.979 146.533 219.061 146.804C219.132 146.553 219.253 146.307 219.439 146.073C219.693 145.749 219.945 145.425 220.199 145.101C220.461 144.373 220.718 143.646 220.958 142.904C221.327 141.762 220.605 140.826 219.702 140.496C219.637 140.465 219.569 140.443 219.502 140.42C224.601 131.781 228.819 122.553 231.986 112.753C232.618 110.79 235.53 111.617 234.92 113.618C234.689 114.377 234.441 115.127 234.198 115.88C234.901 114.402 235.581 112.914 236.235 111.408C236.173 110.864 236.117 110.317 236.058 109.773C231.277 107.494 227.575 101.825 229.358 96.07C229.573 95.3764 229.934 94.6631 230.388 93.9695C230.326 93.8623 230.276 93.7467 230.247 93.6114C229.706 90.9837 230.324 88.4377 230.936 85.8776C231.306 84.3269 232.7 83.7997 234.034 84.0027C234.342 84.0506 234.65 84.0731 234.957 84.1042C234.994 75.1777 235.31 66.2456 235.547 57.4771C235.902 44.4596 236.213 31.4054 237.169 18.4161C237.057 18.4556 236.952 18.512 236.836 18.5486C236.049 18.777 235.378 17.9988 235.558 17.1868C235.914 15.5656 236.82 14.1503 237.638 12.7095C237.979 8.90605 238.369 5.1054 238.86 1.31603C238.899 1.01153 238.998 0.774694 239.131 0.585789C239.108 0.0529091 239.636 -0.121898 240.003 0.0839233C240.378 0.0416312 240.79 0.140313 241.146 0.354592C240.883 0.374329 240.632 0.461732 240.398 0.58015C240.468 0.704207 240.522 0.833903 240.587 0.960779C241.374 0.554775 242.52 0.788791 242.689 1.87147C242.909 3.26429 243.005 4.99544 242.921 6.80836C243.372 7.80927 243.857 8.78763 244.427 9.76035C245.508 11.6043 243.349 13.0281 242.026 12.3458C241.467 14.1897 240.621 15.8391 239.407 17.012V84.0929C240.138 84.0111 240.863 83.8842 241.583 83.7207C240.237 73.7905 242.043 62.789 242.373 52.839C242.763 41.0452 243.237 29.2429 244.007 17.4744C244.078 16.4143 245.536 16.3946 245.567 17.4744C245.884 29.2626 245.751 41.0452 245.833 52.839C245.889 60.8943 246.733 69.8179 246.112 78.1607C246.612 78.1523 247.12 78.4596 247.303 79.0629C247.596 80.0357 247.853 80.8871 248.085 81.6766C249.101 82.0798 249.758 83.4444 248.793 84.3776C248.923 84.9641 249.03 85.5393 249.109 86.1257C250.41 86.1426 251.708 86.2329 253.009 86.4838C255.069 86.8785 254.657 89.8531 253.014 90.4762ZM197.211 282.305C196.362 284.244 196.782 286.429 196.02 288.459C195.617 289.531 195.876 290.396 196.447 290.977C196.565 287.986 196.822 285.014 197.383 282.11C197.386 282.09 197.4 282.076 197.4 282.076C197.406 282.048 197.406 282.042 197.406 282.042C197.347 282.127 197.259 282.195 197.211 282.305ZM204.116 210.151C204.001 216.867 204.325 224.638 203.329 231.839C204.111 245.24 203.69 258.601 202.09 271.957C202.948 272.425 203.8 272.899 204.65 273.384C204.935 270.587 205.011 267.722 205.364 264.968C205.948 260.417 206.529 255.866 207.113 251.313C207.144 251.065 207.215 250.848 207.302 250.645C207.305 250.583 207.302 250.518 207.305 250.456C207.3 249.224 207.291 247.992 207.26 246.771C207.057 238.704 206.171 230.243 207.74 222.286C207.76 219.833 207.779 217.383 207.796 214.93C207.81 213.273 210.201 213.273 210.209 214.93L210.243 220.482C210.486 220.671 210.683 220.933 210.787 221.271C211.705 224.302 212.187 227.46 212.478 230.652C212.605 230.452 212.749 230.271 212.918 230.122V230.119C212.881 229.563 213.11 229.177 213.443 228.932C212.96 223.375 212.845 217.705 212.938 212.043C210.184 202.725 209.868 191.89 209.65 181.757C206.927 191.095 204.283 200.608 204.116 210.151ZM221.988 148.78C220.915 150.083 219.397 149.172 219.061 147.867C218.861 148.574 218.322 149.2 217.631 149.296C217.588 149.629 217.456 149.947 217.202 150.218C216.629 150.83 215.602 150.886 215.009 150.266C215.001 150.466 214.984 150.666 214.944 150.855C214.03 155.09 213.183 159.776 211.276 163.644C211.013 164.174 210.598 164.453 210.147 164.566C210.263 164.772 210.387 164.967 210.502 165.172C211.109 166.278 211.781 167.38 212.441 168.497C212.447 168.508 212.455 168.519 212.461 168.53C213.618 170.481 214.724 172.48 215.458 174.592C215.765 173.814 216.093 173.042 216.412 172.269C216.019 172.241 215.624 172.162 215.235 171.959C214.563 171.606 214.501 170.727 214.775 170.092C215.35 168.753 216.73 167.913 217.487 166.678C218.11 165.657 218.819 163.687 218.604 162.734C218.215 160.997 220.337 160.255 221.13 161.555C221.937 159.835 222.755 158.118 223.59 156.412C223.672 156.753 223.859 157.041 224.104 157.264C224.158 157.092 224.217 156.923 224.268 156.751C225.622 152.211 226.342 147.63 226.74 142.93C225.188 144.903 223.585 146.84 221.988 148.78ZM235.129 96.3632C234.968 96.5549 234.81 96.7523 234.666 96.9976C233.43 99.1404 234.023 101.069 235.442 102.518C235.31 100.474 235.203 98.4214 235.129 96.3632ZM238.437 122.469C238.287 123.024 238.137 123.58 237.979 124.129C237.003 125.091 236.103 126.117 235.251 127.18C235.623 127.276 235.965 127.499 236.224 127.809C237.122 126.126 238.016 124.431 238.863 122.706C238.832 122.514 238.815 122.314 238.829 122.088C238.865 121.538 238.899 120.986 238.933 120.433C238.77 121.113 238.609 121.795 238.437 122.469ZM239.895 4.85165C239.718 4.1496 239.551 3.44755 239.419 2.73986V8.204C239.678 7.10441 239.847 5.9879 239.895 4.85165ZM243.211 92.5485C241.953 92.7317 240.635 92.8643 239.416 92.6584V93.4169C239.416 94.6039 240.209 95.2241 241.067 95.3285C241.021 95.8134 240.985 96.3012 240.942 96.7861C241.047 96.3125 241.134 95.8332 241.236 95.3595C242.209 95.3961 243.211 94.7589 243.211 93.4197V92.5485Z" fill="#011953"/>
<path d="M122.884 115.406C122.704 115.558 122.543 115.744 122.427 116.001C122.25 116.04 122.052 115.989 121.891 115.868C121.567 116.985 121.217 118.09 120.799 119.158C120.198 120.704 118.076 120.565 117.991 118.752C117.932 117.512 117.963 116.271 118.025 115.031C118.028 114.856 118.048 114.678 118.053 114.504C118.07 114.236 118.073 113.971 118.096 113.703C118.149 112.871 118.231 112.039 118.352 111.208L118.355 111.188C118.372 111.075 118.386 110.962 118.403 110.849C118.928 106.773 119.817 102.71 120.494 98.706C121.022 95.5764 121.513 92.4242 122.072 89.2918C121.725 88.9732 121.53 88.4657 121.812 87.9215C122.089 87.383 122.351 86.7346 122.659 86.1171C122.647 86.0776 122.645 86.0297 122.631 85.9902C122.659 85.8295 122.693 85.6716 122.718 85.5137C122.729 85.4489 122.712 85.4009 122.718 85.3389C122.738 85.2149 122.786 85.1134 122.786 84.9752V81.6003C122.786 80.9603 122.506 80.4753 122.117 80.137C121.338 77.5346 119.696 75.9219 116.137 76.2038C115.389 76.263 114.873 76.6888 114.585 77.2442C109.334 75.5554 104.119 73.6043 99.3667 70.7848C97.8231 69.8685 98.4637 67.0631 100.289 67.1731C108.021 67.6383 115.646 70.0912 123.04 72.4229C124.38 72.8458 125.602 74.2697 125.495 75.8458C126.161 75.1578 127.453 75.4454 127.45 76.6578C127.433 83.2553 126.316 89.7316 125.289 96.2221C125.094 102.853 124.304 109.62 122.884 115.406Z" fill="#011953"/>
<path d="M119.419 93.4842C119.534 93.2897 119.802 93.4589 119.706 93.6647C118.908 95.362 117.977 105.546 114.373 103.296C110.806 101.069 118.434 95.1393 119.419 93.4842Z" fill="#011953"/>
<path d="M109.447 91.8829C109.664 92.4327 109.611 93.1235 109.244 93.724C108.566 94.8321 107.105 95.3932 106.021 94.5896C104.647 93.569 105.578 91.7617 106.842 91.835C106.583 91.2514 106.65 90.5155 107.333 90.0813C107.762 89.8078 107.762 89.5541 107.737 89.1452C107.463 89.258 107.189 89.3708 106.899 89.4187C106.363 89.5061 105.956 89.2608 105.753 88.852C105.499 89.086 105.231 89.351 104.971 89.5484C104.463 89.9375 103.718 89.6358 103.422 89.117C102.528 87.5522 103.575 86.1115 104.734 85.167C105.513 84.5326 106.566 84.3803 107.553 84.541C107.737 84.3324 107.92 84.1209 108.098 83.9236C109.249 82.6492 110.429 81.403 111.594 80.1455C113.344 78.2536 116.101 81.1915 114.326 83.0552C113.144 84.2957 111.961 85.5363 110.779 86.7769C110.708 86.8502 110.632 86.9235 110.562 86.9968C111.095 88.6264 110.629 90.6677 109.447 91.8829Z" fill="#011953"/>
<path d="M103.059 100.976C101.044 99.4338 103.096 96.6791 104.969 97.3304C105.661 96.5974 106.97 96.5015 107.647 97.3304C108.432 98.2947 109.315 99.2336 109.953 100.316C111.138 102.332 108.494 104.354 106.945 102.789C106.194 102.03 105.604 101.052 104.969 100.184C104.879 100.06 104.8 99.9272 104.732 99.7947C104.69 99.7862 104.645 99.758 104.603 99.7439C104.58 99.7862 104.557 99.8257 104.538 99.868C104.529 99.8849 104.529 99.8792 104.524 99.8933C104.679 100.694 103.731 101.489 103.059 100.976Z" fill="#011953"/>
<path d="M157.251 247.027C158.303 247.923 159.669 248.741 159.407 250.359C159.483 249.889 161.859 251.259 163.761 252.446C164.328 251.259 165.383 250.374 166.617 250.063C166.693 248.501 166.763 246.939 166.873 245.377C166.975 243.976 169.018 242.975 169.661 244.574C170.449 246.531 171.975 248.014 172.627 250.066C173.271 252.085 173.406 253.802 173.124 255.891C172.828 258.082 169.715 257.146 170.008 254.975C170.085 254.403 170.155 253.669 170.172 252.874C169.825 253.765 168.787 254.216 167.9 254.039C167.559 254.372 167.218 254.704 166.876 255.04C167.268 256.455 165.615 258.062 164.382 257.084C162.705 255.756 160.73 254.498 159.477 252.674C158.148 250.74 159.079 251.69 157.764 251.69C156.751 251.69 155.732 250.763 154.931 250.227C152.609 248.676 155.061 245.166 157.251 247.027Z" fill="#011953"/>
<path d="M166.722 424.214C166.541 426.495 163.527 426.518 163.381 424.214C161.789 399.659 163.115 374.569 163.316 349.958C163.527 324.053 164.625 298.201 165.678 272.327C165.703 271.718 166.552 271.712 166.569 272.327C167.227 297.076 168.003 321.814 167.856 346.583C167.701 372.313 168.742 398.574 166.722 424.214Z" fill="#011953"/>
<path d="M162.084 297.555C162.18 297.555 162.18 297.713 162.084 297.713C161.988 297.713 161.988 297.555 162.084 297.555Z" fill="#011953"/>
<path d="M162.466 297.727C162 299.991 161.532 302.255 161.066 304.519C161.055 304.57 160.984 304.548 160.995 304.5C161.45 302.233 161.904 299.966 162.361 297.696C162.372 297.62 162.48 297.651 162.466 297.727Z" fill="#011953"/>
<path d="M156.656 336.726C156.356 337.913 154.861 337.557 154.759 336.452C153.91 327.108 155.625 317.119 156.198 307.747C156.771 298.355 156.653 287.819 160.087 279.019C160.115 278.949 160.22 278.929 160.239 279.019C162.282 288.242 160.561 298.429 159.689 307.747C158.803 317.246 158.978 327.498 156.656 336.726Z" fill="#011953"/>
<path d="M183.244 314.512C183.173 315.276 182.2 315.276 182.129 314.512C181.308 305.69 179.948 295.393 182.363 286.7C181.556 286.376 181.661 284.871 182.688 284.871C183.715 284.871 183.817 286.373 183.012 286.7C185.425 295.393 184.065 305.69 183.244 314.512Z" fill="#011953"/>
<path d="M181.101 323.584C180.334 323.584 180.334 322.318 181.101 322.318C181.866 322.318 181.866 323.584 181.101 323.584Z" fill="#011953"/>
<path d="M181.787 389.007C181.603 389.834 180.325 389.884 180.176 389.007C178.389 378.539 179.908 367.156 180.765 356.623C181.728 344.818 181.076 333.041 181.911 321.261C181.973 320.379 183.189 320.359 183.212 321.261C183.494 333.058 182.374 344.792 182.701 356.623C182.998 367.21 184.075 378.62 181.787 389.007Z" fill="#011953"/>
<path d="M177.227 554.172C177.343 553.205 178.522 553.205 178.638 554.172C179.953 565.032 179.679 576.107 179.775 587.038C179.86 596.889 180.729 607.273 179.295 617.018C179.084 618.458 176.787 618.458 176.572 617.018C175.133 607.257 176.056 596.906 176.093 587.038C176.129 576.118 175.912 565.018 177.227 554.172Z" fill="#011953"/>
<path d="M4.67522 620.985C16.1322 619.364 27.6456 618.614 39.1787 618.298C39.4355 615.273 39.7261 612.262 40.0422 609.262C38.493 609.169 37.051 607.849 37.6746 605.805C39.0686 601.235 40.4401 596.676 41.7353 592.089C42.3844 589.148 43.0475 586.213 43.7107 583.275C45.0229 575.927 46.5777 568.617 48.4346 561.334C48.8748 558.644 49.3263 555.954 49.8342 553.284C49.3771 552.94 49.109 552.331 49.3122 551.655C48.872 551.612 48.4317 551.573 47.9943 551.525C45.0793 551.206 45.0793 547.017 47.9943 546.698C49.1118 546.577 50.2321 546.478 51.3524 546.368C52.2187 544.535 53.9175 543.608 55.5966 543.619C55.6982 542.271 55.7461 540.912 55.7997 539.553C58.0855 540.946 60.3769 541.73 62.688 542.063C62.6739 543.188 62.6711 544.313 62.6316 545.438C69.39 544.987 76.1711 544.736 82.9634 544.578C82.8872 544.4 82.8252 544.217 82.8082 544.025C82.2608 538.287 84.6171 532.939 86.155 527.469C88.2263 520.105 90.3992 512.774 92.5269 505.429C93.9717 500.439 95.2726 495.257 96.6582 490.086C97.7841 485.033 99.0737 480.017 100.482 475.035C102.282 469.667 104.133 464.358 105.795 459.122C106.083 458.22 106.078 457.414 105.889 456.709C108.426 456.001 111.01 455.223 113.621 454.651C113.403 456.689 113.135 458.742 112.898 460.789C113.677 461.152 114.233 461.916 114.114 463.089C113.553 468.61 112.853 474.201 111.276 479.501C114.072 473.146 117.094 466.915 120.596 460.969C119.919 460.794 119.242 460.617 118.579 460.414C115.24 459.399 116.237 454.721 119.349 454.355C121.499 454.098 123.689 453.991 125.904 453.977C125.904 453.788 125.904 453.602 125.904 453.416C125.65 453.21 125.422 452.962 125.258 452.623C124.118 450.258 123.551 447.938 123.353 445.293C123.26 444.061 123.528 442.755 123.729 441.549C123.952 440.201 125.089 439.674 125.588 438.549C125.758 438.165 126.031 437.999 126.316 437.979C126.237 436.693 126.892 435.298 128.145 435.078C128.475 435.019 128.814 434.982 129.15 434.934C129.539 434.745 129.96 434.638 130.386 434.635C130.309 434.066 130.228 433.496 130.16 432.927C131.269 433.998 133.267 433.86 134.147 432.529C130.307 431.965 127.888 429.056 130.18 425.089C130.448 424.626 130.846 424.308 131.289 424.119C131.949 391.21 133.016 358.315 134 325.423C133.952 322.35 133.905 319.277 133.888 316.198C133.876 313.979 130.541 313.361 130.16 315.659C130.075 316.17 130.007 316.68 129.934 317.193C129.353 312.648 128.791 308.106 129.071 303.561C127.276 302.831 125.538 301.734 124.364 300.324C123.554 300.812 122.924 301.7 123.049 302.695C123.071 302.87 123.122 303.079 123.159 303.273C122.179 302.769 121.178 302.334 120.173 301.937C119.945 300.547 119.708 299.16 119.487 297.77C119.719 295.179 119.874 292.579 119.981 289.974C120.128 290.938 120.67 291.525 121.355 291.776C121.409 294.29 121.449 296.805 121.46 299.32C121.463 299.673 121.525 299.98 121.618 300.262C121.855 297.076 122.182 293.901 122.414 290.797C122.992 283.027 123.624 275.208 124.815 267.503L124.812 267.5C124 265.185 124.451 262.656 124.612 260.243C124.722 258.579 124.857 256.918 124.984 255.258C123.159 253.216 121.536 251.009 120.337 248.604C119.572 247.073 120.839 244.871 122.575 245.505C124.028 246.035 125.444 246.737 126.824 247.549C126.711 250.668 126.621 253.789 126.548 256.907C126.508 256.868 126.463 256.831 126.424 256.789C126.458 257.223 126.489 257.657 126.522 258.088C126.24 270.72 126.22 283.362 126.218 295.999C126.98 296.814 127.629 297.733 128.534 298.469C129.254 299.053 130.044 299.495 130.879 299.803C130.908 299.757 130.927 299.704 130.958 299.659C130.86 299.631 130.764 299.597 130.665 299.569C131.116 299.123 131.418 298.48 131.421 297.626C131.427 294.471 131.461 291.319 131.506 288.164C131.802 288.302 132.096 288.494 132.372 288.778C132.44 288.849 132.508 288.917 132.575 288.984C132.581 280.517 133.335 271.862 133.763 263.454C133.766 263.319 133.769 263.183 133.772 263.045C133.509 262.932 133.25 262.791 132.99 262.586C132.776 262.416 132.558 262.236 132.344 262.064C132.508 258.706 132.697 255.351 132.908 251.996C133.289 252.325 133.667 252.661 134.04 252.999C134.048 252.734 134.06 252.472 134.068 252.207C134.088 246.997 134 241.674 134.046 236.356C134.65 229.203 135.355 222.058 136.173 214.922C136.241 214.325 136.142 213.837 135.939 213.445C135.976 213.256 135.998 213.062 136.038 212.873C136.255 211.821 137.556 211.609 138.202 212.25C139.218 210.462 142.305 210.766 142.074 213.239C143.482 228.679 143.067 244.445 142.743 259.932C142.683 262.758 142.599 265.585 142.517 268.411C143.299 266.739 144.261 265.199 145.52 263.899H145.522C145.291 261.246 145.096 258.59 144.442 255.999C144.236 255.187 144.552 254.119 145.305 253.735C148.291 252.227 151.341 253.724 153.15 256.276V262.391C152.244 262.532 151.262 262.115 151.11 261.007C150.791 258.7 149.47 257.874 147.754 257.598C147.368 259.65 147.19 261.728 146.993 263.809C146.397 264.085 145.932 264.655 145.932 265.557V268.932C145.912 272.555 145.827 276.175 145.711 279.793C145.184 281.823 144.65 283.796 144.255 285.649C143.784 287.873 144.399 296.304 140.604 296.718C140.497 297.028 140.401 297.347 140.274 297.648C140.214 298.336 140.132 299.016 140.059 299.701C139.78 300.014 139.593 300.437 139.593 300.998C139.588 304.81 139.557 308.625 139.512 312.437C139.292 316.914 138.894 321.324 138.628 325.854C138.239 332.449 138.208 339.041 138.324 345.63C137.361 361.07 137.968 376.639 138.01 392.137C138.013 393.437 138.959 394.088 139.904 394.091C140.02 394.297 140.169 394.455 140.336 394.579C141.493 408 142.274 421.499 142.435 434.931C144.289 435.047 146.146 435.168 148 435.312C150.187 421.327 152.758 407.481 153.963 393.271C155.323 377.217 155.368 360.988 154.758 344.894C154.713 343.724 156.313 343.781 156.429 344.894C159.333 372.759 159.77 403.663 154.132 431.799C160.408 432.247 166.639 433.764 172.968 433.928C174.399 433.964 175.821 433.947 177.241 433.902C177.839 429.828 178.612 425.76 179.018 421.739C179.91 412.954 180.209 404.34 179.786 395.515C179.698 393.699 182.309 393.722 182.422 395.515C183.237 408.431 184.736 424.367 181.623 437.728C184.261 438.019 186.835 438.506 189.253 439.358C190.43 425.399 190.853 411.408 190.379 397.446C191.663 398.648 194.093 398.543 194.703 396.254C195.654 392.676 196.396 389.075 197.017 385.461C197.146 385.734 197.237 386.045 197.265 386.405C197.733 379.782 198.272 373.207 198.523 366.833C198.549 366.17 198.823 365.688 199.206 365.369C199.782 355.732 199.847 346.039 200.084 336.368C200.27 339.808 200.473 343.251 200.685 346.69V398.89C200.685 400.314 201.402 401.143 202.305 401.433C202.065 408.747 201.416 415.962 199.881 422.85C199.706 423.628 198.817 423.893 198.216 423.594C198.255 425.965 198.315 428.339 198.348 430.711C201.131 430.843 201.901 435.368 198.887 436.533C198.735 436.592 198.574 436.646 198.422 436.702C198.436 437.988 198.453 439.27 198.467 440.556C198.487 440.559 198.509 440.562 198.529 440.562C198.727 440.587 198.887 440.649 199.043 440.723C199.316 439.256 201.453 439.899 201.213 441.405C201.187 441.566 201.156 441.726 201.131 441.884C201.949 442.231 202.638 442.916 202.832 443.889C203.541 444.286 204.102 445.039 204.215 446.147C204.229 446.274 204.229 446.392 204.241 446.519C204.314 446.686 204.37 446.86 204.401 447.044C204.636 448.414 204.627 449.703 204.37 450.906C204.379 451.008 204.399 451.104 204.399 451.211C204.396 454.586 204.39 457.961 204.379 461.338C204.379 461.697 204.314 462.007 204.221 462.294H215.771C215.438 462.788 215.195 463.366 215.105 464.025C215.105 464.025 215.116 464.042 215.119 464.051C215.3 464.578 215.458 465.114 215.63 465.641C215.644 465.652 215.664 465.649 215.681 465.661C216.268 465.15 217.365 465.238 217.501 466.196C218.119 470.569 218.819 474.942 219.547 479.313C219.781 479.332 220.004 479.459 220.128 479.747C224.019 488.69 225.633 498.336 227.589 507.944C229.277 516.239 233.281 526.691 232.296 535.403C232.669 537.473 232.965 539.539 233.112 541.6C233.749 541.612 234.384 541.623 235.022 541.637C235.854 542.889 237.313 543.65 239.229 543.154C244.055 541.899 249.1 543.143 253.994 543.309C254.386 543.323 254.741 543.272 255.077 543.191C256.485 543.732 257.874 544.327 259.251 544.84C260.498 545.305 261.565 545.125 262.386 544.564C262.936 547.327 263.444 550.095 263.89 552.875C263.619 553.157 263.345 553.436 263.072 553.718C262.925 553.874 262.77 553.992 262.615 554.093C263.535 559.143 264.508 564.184 265.499 569.223C265.614 570.917 265.713 572.194 265.772 572.73C265.88 573.669 266.207 574.444 266.661 575.07C267.66 580.069 268.673 585.068 269.681 590.064C270.925 595.091 272.201 600.147 273.262 605.219C274.326 609.434 275.398 613.646 276.431 617.87C276.546 618.341 276.518 618.786 276.405 619.192C283.906 619.167 291.423 619.181 298.927 619.339C300.256 619.514 301.58 619.714 302.9 619.942C308.835 623.937 315.452 625.987 322.315 627.47H0.400028C-0.426791 624.803 0.992629 621.507 4.67522 620.985ZM50.5595 591.158C50.5341 590.986 50.5115 590.811 50.4833 590.639C50.1446 592.841 49.775 595.038 49.4166 597.234C49.837 600.987 50.2603 604.765 50.5848 608.546C51.4258 606.42 52.247 604.297 53.0399 602.168C53.0286 602.151 53.0145 602.143 53.006 602.123C51.1549 598.9 51.1097 594.838 50.5595 591.158ZM54.3436 588.7C54.2166 586.599 54.1066 584.49 53.7764 582.409C53.5789 581.174 53.277 579.956 52.9553 578.744C53.4576 582.057 53.9147 585.375 54.3436 588.7ZM55.1789 563.169C54.6315 565.391 54.1235 567.616 53.6099 569.843C53.6607 569.888 53.7172 569.919 53.7623 569.975C56.9003 573.906 58.4552 580.904 58.2463 587.152C59.155 584.301 60.0298 581.439 60.8679 578.564C60.5067 578.617 60.0834 578.437 59.9395 578.019C58.4156 573.601 56.2597 568.318 55.1789 563.169ZM62.6711 571.678C61.3081 568.619 61.198 565.064 60.8989 561.726C60.7381 559.916 60.5321 558.114 60.439 556.315C59.5472 555.382 58.252 554.92 57.0188 555.007C57.6058 555.715 58.0121 556.467 58.0939 557.257C60.4926 563.062 60.8086 570.72 61.3561 576.903C61.8386 575.217 62.3099 573.528 62.7727 571.831C62.7388 571.78 62.6965 571.738 62.6711 571.678ZM63.9551 552.858C64.463 555.241 64.5589 557.683 64.7565 560.164C64.8355 561.148 64.9343 562.151 65.0246 563.167C65.8542 559.817 66.6613 556.453 67.4204 553.047C66.2662 552.983 65.1092 552.921 63.9551 552.858ZM85.9462 544.493C86.2143 544.487 86.4823 544.476 86.7504 544.471C86.8972 543.822 87.0157 543.165 87.154 542.514C86.7928 543.193 86.392 543.853 85.9462 544.493ZM94.4853 529.099C93.5174 532.344 92.4027 535.496 90.9918 538.426C90.5205 539.401 89.4962 539.675 88.6073 539.427C87.8002 541.225 88.0767 543.385 90.3145 544.414C91.4235 544.925 92.5636 545.35 93.7149 545.731C93.6839 545.531 93.6754 545.319 93.7121 545.094C93.887 544.022 94.1721 542.973 94.4966 541.936C93.492 542.66 91.8158 541.927 91.923 540.495C92.2249 536.398 93.698 532.73 95.3347 529.079C95.0497 529.085 94.7675 529.085 94.4853 529.099ZM90.8789 555.613C91.2993 556.036 91.5956 556.611 91.6747 557.285C92.0923 556.442 92.493 555.593 92.9163 554.753C92.8006 554.629 92.6708 554.522 92.572 554.375C92.0923 554.962 91.5082 555.365 90.8789 555.613ZM195.033 451.882C194.869 451.211 194.79 450.531 194.751 449.843C194.621 449.787 194.488 449.739 194.358 449.674C194.09 449.542 193.89 449.322 193.732 449.071C192.386 448.558 191.028 448.098 189.663 447.678C189.553 447.594 189.443 447.506 189.324 447.433C190.456 447.117 191.584 446.787 192.696 446.418C193.579 446.127 194.065 445.115 194.034 444.19C183.401 445.228 172.782 444.721 162.078 444.238C152.38 443.801 140.48 444.534 130.882 441.346C128.882 443.522 128.994 447.943 132.302 448.6C132.121 450.45 131.943 452.302 131.76 454.152C132.223 454.18 132.683 454.197 133.148 454.228C133.095 453.889 133.041 453.551 132.987 453.213C132.987 453.213 133.004 453.216 133.013 453.218C132.575 451.775 132.499 450.272 132.499 448.648C134.26 448.913 136.018 449.158 137.779 449.392C137.742 451.138 137.573 452.753 136.865 454.31C137.119 454.422 137.375 454.51 137.632 454.603C143.778 455.195 149.936 456.021 155.825 456.294C165.067 456.72 174.241 456.805 183.409 457.363C185.444 456.794 187.473 456.024 189.488 454.958C189.807 454.789 190.069 454.583 190.306 454.36C190.515 454.298 190.738 454.245 190.944 454.183C192.335 454.064 193.718 453.864 195.095 453.622C195.075 453.044 195.055 452.463 195.033 451.882ZM195.45 458.364C195.419 458.364 195.391 458.367 195.36 458.367C194.88 458.384 194.88 457.558 195.36 457.574C195.366 457.574 195.371 457.574 195.371 457.574C195.354 457.293 195.321 457.011 195.301 456.729C195.089 455.993 194.883 455.251 194.643 454.529C194.68 455.468 194.719 456.407 194.753 457.346C194.767 457.71 194.719 458.026 194.686 458.35C194.925 458.378 195.163 458.398 195.402 458.429C195.425 458.432 195.439 458.454 195.462 458.46C195.459 458.429 195.453 458.398 195.45 458.364ZM199.017 458.781L199.014 458.773C198.515 457.411 198.137 456.044 197.849 454.668C197.516 454.2 197.31 453.61 197.316 452.917C197.321 452.387 197.335 451.857 197.344 451.329C197.321 451.087 197.316 450.842 197.302 450.599C197.163 450.577 197.022 450.551 196.884 450.523C195.69 452.46 195.862 455.327 197.891 456.59C197.471 458.178 197.894 460.033 199.023 461.189C199.026 460.385 199.02 459.582 199.017 458.781ZM235.962 619.164C241.264 619.192 246.569 619.22 251.872 619.251C258.438 619.288 265.039 619.251 271.656 619.22C271.337 618.47 271.049 617.712 270.742 616.956C270.465 616.66 270.228 616.277 270.07 615.772C269.889 615.197 269.731 614.613 269.562 614.035C269.003 612.597 268.473 611.151 267.948 609.699C267.178 609.555 266.433 609.183 265.823 608.537C265.499 605.783 265.163 603.034 264.813 600.288C263.777 596.89 262.801 593.473 261.943 590.008C260.27 583.244 259.793 576.223 259.146 569.265C258.754 567.785 258.354 566.307 257.913 564.838C257.521 563.525 256.604 562.659 255.532 562.208C254.826 559.126 254.064 556.059 253.161 553.025C252.027 549.219 246.578 549.086 245.387 552.292C245.322 552.334 245.274 552.402 245.212 552.45C245.167 552.323 245.122 552.199 245.076 552.072C244.529 552.097 243.984 552.097 243.44 552.117C242.506 551.562 241.354 551.531 240.285 551.849C244.269 561.557 245.486 572.959 247.613 583.227C249.806 593.803 254.118 605.825 253.607 616.672C253.539 618.076 251.654 618.837 250.977 617.43C248.917 613.147 247.633 608.255 246.657 603.217C247.938 602.332 248.796 600.713 248.409 598.593C247.17 591.812 245.844 584.797 244.91 577.797C245.522 576.271 245.415 574.43 244.365 573.178C244.114 570.773 243.911 568.371 243.801 565.992C243.657 562.918 241.112 561.545 238.905 561.867C238.425 558.647 238.092 555.433 238.075 552.255C237.04 552.269 236.007 552.283 234.982 552.309C231.867 552.382 228.755 552.458 225.639 552.534C227.914 564.004 229.717 575.612 231.427 587.18C232.948 597.525 235.598 608.552 235.962 619.164ZM228.455 598.514C227.389 600.987 226.878 603.279 226.912 605.687C227.544 605.222 228.264 604.813 229.09 604.444H229.093C229.093 604.444 229.104 604.438 229.11 604.435C228.873 602.464 228.659 600.488 228.455 598.514ZM227.208 616.697C228.501 616.147 229.618 615.62 230.781 615.4C230.569 614.326 230.377 613.24 230.197 612.155C229.079 613.782 227.908 615.369 226.697 616.925C226.869 616.849 227.039 616.77 227.208 616.697ZM228.018 594.293C227.866 592.813 227.71 591.344 227.547 589.887C226.951 591.248 226.497 592.607 226.164 593.989C226.779 593.78 227.459 593.918 228.018 594.293ZM226.847 584.16C226.466 581.282 226.096 578.4 225.738 575.513C225.662 576.641 225.549 577.777 225.439 578.913C225.862 580.675 226.336 582.423 226.847 584.16ZM221.299 613.398C221.762 612.423 222.304 611.498 222.902 610.615C222.467 608.475 222.312 606.426 222.431 604.418C222.061 604.077 221.793 603.598 221.762 602.977C221.652 600.671 221.765 598.506 222.064 596.408C221.688 596.346 221.339 596.163 221.085 595.839C221.172 601.717 221.223 607.579 221.299 613.398ZM223.864 558.641C223.669 556.622 223.475 554.604 223.305 552.585C223.082 552.591 222.862 552.591 222.639 552.596C222.651 554.731 222.656 556.859 222.654 558.98C223.02 558.737 223.438 558.641 223.864 558.641ZM222.617 549.114C222.623 549.622 222.623 550.124 222.628 550.631C222.806 550.831 222.987 551.02 223.187 551.167C223.133 550.476 223.06 549.785 223.009 549.095C222.924 547.933 224.671 547.699 224.905 548.821C225.111 549.802 225.286 550.795 225.484 551.779C227.775 551.525 230.033 549.154 229.387 546.269C228.249 541.192 226.946 536.153 225.594 531.123C226.192 530.227 226.48 529.062 226.218 527.703C223.018 511.257 218.325 495.203 215.125 478.757C214.724 476.693 213.099 475.721 211.417 475.678C212.698 473.755 211.888 470.82 210.088 469.419C205.951 466.194 201.472 464.169 196.813 463.126C196.774 462.923 196.746 462.717 196.703 462.514C196.308 462.486 195.955 462.238 195.86 461.663C195.724 460.854 195.625 460.039 195.538 459.221C195.521 459.227 195.518 459.241 195.501 459.246C195.154 459.325 194.81 459.387 194.466 459.464C194.135 460.563 193.54 461.42 192.753 461.987C192.736 462.142 192.713 462.297 192.696 462.455C189.815 462.162 186.886 462.207 183.94 462.551C183.079 461.86 181.902 461.505 180.483 461.761C180.412 461.773 180.345 461.798 180.274 461.809C180.274 461.767 180.274 461.725 180.274 461.685C173.217 462.393 166.125 462.607 158.867 462.675C147.833 462.776 135.143 463.811 123.912 461.699C122.947 464.296 121.948 466.879 120.921 469.447C121.999 467.688 123.263 466.106 124.897 464.922C125.106 464.773 125.317 464.981 125.343 465.195C126.057 470.933 122.834 476.29 120.732 481.489C117.873 488.566 115.04 495.654 112.136 502.709C109.873 508.209 107.59 513.699 105.313 519.191C107.009 515.554 108.682 511.909 110.325 508.246C116.601 494.267 121.99 479.882 128.103 465.833C128.842 464.135 131.345 465.351 130.885 467.082C127.146 481.202 121.725 494.879 116.036 508.221C113.223 514.821 110.254 521.351 107.122 527.788C104.088 534.022 101.365 541.75 96.407 546.489C100.578 547.465 104.89 547.586 109.032 546.681C109.642 544.989 110.243 543.495 111.056 542.032C116.121 530.483 121.573 519.112 126.971 507.741C132.398 496.308 137.074 483.023 144.543 472.946C144.814 472.58 145.308 472.983 145.226 473.369C142.52 485.969 135.615 498.274 130.609 510.005C125.684 521.545 120.797 533.128 115.542 544.507C117.611 544.535 119.679 544.564 121.745 544.597C121.883 546.594 123.17 548.418 125.628 548.376C136.554 548.178 147.28 546.162 158.046 544.417C167.259 544.75 176.532 545.59 185.842 544.998C188.291 544.843 189.838 542.379 189.855 540.134C190.978 540.208 192.101 540.295 193.224 540.363C199.731 540.749 206.241 540.98 212.751 541.161C214.555 541.894 216.855 541.341 217.887 539.5C218.779 542.015 219.772 544.499 220.819 546.966C221.759 547.07 222.6 547.775 222.617 549.114ZM68.9442 618.166C71.7209 610.866 76.2134 604.111 79.9976 597.409C84.6453 589.179 89.4256 581.036 94.0479 572.789C94.3075 572.327 94.9509 572.733 94.7223 573.209C90.5713 581.752 86.5839 590.383 82.4611 598.943C79.3937 605.309 76.6 612.208 72.8158 618.208C73.9869 618.219 75.1609 618.231 76.3319 618.242C77.8163 613.511 80.6212 609.107 82.8336 604.802C85.9067 598.816 89.0164 592.734 92.7357 587.177C93.571 585.928 95.8737 586.661 95.2472 588.305C93.0715 593.997 90.2609 599.349 87.5603 604.771C85.4016 609.107 83.35 614.12 80.562 618.281C82.7349 618.301 84.9106 618.329 87.0806 618.343C99.5478 618.414 112.012 618.485 124.479 618.552C124.403 609.262 125.885 599.634 126.565 590.487C127.386 579.418 127.86 568.23 129.477 557.251C129.674 555.915 131.613 556.287 131.63 557.561C131.774 568.529 130.752 579.545 130.101 590.487C129.553 599.662 129.72 609.366 128.441 618.575C137.799 618.628 147.156 618.682 156.514 618.733C155.656 618.453 154.939 617.709 154.987 616.604C155.898 596.25 159.728 576.012 161.94 555.794C162.095 554.378 164.178 554.33 164.057 555.794C162.358 576.198 162.22 596.955 159.217 617.216C159.093 618.045 158.599 618.538 157.987 618.744C161.816 618.764 165.645 618.786 169.475 618.809C184.944 618.893 200.411 618.978 215.881 619.062C215.359 617.061 215.635 615.048 216.781 612.764C216.855 612.617 216.948 612.507 217.052 612.42C216.143 593.098 214.876 573.274 216.285 554.186C216.358 553.18 217.56 552.664 218.201 553.149C218.206 552.994 218.218 552.839 218.223 552.684C215.356 552.74 212.489 552.808 209.622 552.833C191.663 553.002 173.705 553.07 155.746 553.18C143.778 553.253 131.737 553.513 119.679 553.699C118.251 564.478 116.301 575.206 114.425 585.903C112.709 595.672 111.992 606.719 108.197 615.826C107.542 617.399 105.352 616.508 105.324 614.997C105.141 605.027 108.623 594.496 110.579 584.772C112.664 574.405 114.766 563.99 117.306 553.733C111.166 553.82 105.022 553.89 98.8818 553.885C97.9619 555.176 96.3365 555.864 94.886 555.723C91.2429 565.572 87.2584 575.231 83.223 584.907C79.23 594.477 76.0498 606.313 69.6863 614.36C68.693 615.614 67.1523 614.224 67.3583 612.916C67.553 611.681 67.8239 610.449 68.1512 609.223C67.5417 609.665 66.6302 609.248 66.5879 608.354C66.554 607.618 66.5766 606.885 66.5992 606.149C66.0743 605.887 65.6962 605.281 65.8373 604.494C66.6951 599.727 68.1258 594.973 69.8641 590.262C70.3213 588.702 70.7756 587.155 71.1791 585.621C73.5213 576.737 75.776 567.79 78.3778 558.985C77.2462 559.208 76.0723 557.598 77.1305 556.524C77.7796 555.867 78.4709 554.866 79.3768 554.669C80.2798 554.474 80.9994 555.238 80.816 556.202C80.7765 556.403 80.6918 556.591 80.5958 556.775C80.8724 557.026 81.0502 557.415 80.9712 557.914C80.6636 559.842 80.3588 561.774 80.0512 563.705C80.3673 562.93 80.6946 562.16 81.0586 561.399C81.0445 560.663 81.0276 559.927 80.9909 559.183C80.895 557.237 82.3849 556.357 83.7987 556.521C83.8608 556.428 83.9088 556.329 83.9708 556.236C84.2107 555.872 84.5127 555.599 84.8456 555.396C84.967 555.247 85.0911 555.092 85.2153 554.948C85.4608 554.663 85.7543 554.542 86.0562 554.497C85.8587 554.271 85.6725 554.031 85.5285 553.758C79.9779 553.651 74.4384 553.428 68.9075 553.143C67.3216 568.275 63.9551 583.45 59.2509 597.99C58.6612 604.734 57.761 611.898 55.7433 618.101C60.1455 618.09 64.5448 618.124 68.9442 618.166ZM51.0787 624.104C53.006 623.949 54.9588 622.584 55.2325 619.996C55.7969 614.636 56.6491 609.332 57.6283 604.054C57.9077 603.646 58.1278 603.158 58.2576 602.583C58.5991 601.08 58.9151 599.571 59.2284 598.063C57.4167 603.657 55.4244 609.163 53.2403 614.529C52.7803 615.662 51.8942 615.975 51.0505 615.772C51.1041 617.182 51.1436 618.589 51.1436 619.99C51.1436 621.095 50.2152 621.634 49.3968 621.484C50.1418 622.124 50.7288 622.998 51.0787 624.104ZM48.4741 620.842C48.3922 620.712 48.3132 620.574 48.2652 620.402C48.0762 619.714 47.8674 619.048 47.6557 618.386C47.5061 619.046 47.3566 619.705 47.207 620.362C47.6501 620.467 48.0705 620.624 48.4741 620.842Z" fill="#011953"/>
<path d="M158.607 536.251C158.212 536.883 157.083 536.716 157.154 535.831C157.927 526.109 162.233 515.147 166.426 506.528C167.019 505.313 168.619 506.195 168.396 507.411C166.663 516.783 163.627 528.235 158.607 536.251Z" fill="#011953"/>
<path d="M154.994 521.252C152.316 528.687 149.765 537.808 144.499 543.551C143.698 544.425 142.504 543.512 142.699 542.435C143.946 535.51 148.108 529.079 150.826 522.665C154.686 513.549 157.393 503.997 160.979 494.777C161.388 493.726 162.782 494.101 162.59 495.251C161.098 504.183 158.039 512.802 154.994 521.252Z" fill="#011953"/>
<path d="M130.715 544.867C129.863 545.465 129.017 544.486 129.161 543.593C129.841 539.338 132.157 536.372 134.251 532.701C137.138 527.634 139.748 522.393 142.291 517.123C147.325 506.694 150.435 495.05 156.099 485.032C156.206 484.84 156.53 484.908 156.513 485.153C155.78 496.017 151.008 506.711 146.857 516.545C143.138 525.365 138.495 539.409 130.715 544.867Z" fill="#011953"/>
<path d="M139.525 510.623C134.651 521.365 129.71 534.819 121.95 543.523C120.846 544.761 118.767 543.492 119.249 541.848C122.404 531.123 129.535 521.041 134.38 511.026C140.185 499.026 145.25 486.654 150.959 474.61C151.67 473.11 154.001 474.158 153.504 475.751C149.774 487.751 144.677 499.26 139.525 510.623Z" fill="#011953"/>
<path d="M124.14 506.319C118.375 519.356 113.104 533.293 106.027 545.577C104.759 547.777 101.08 546.339 101.988 543.765C106.47 531.068 113.095 518.998 118.751 506.852C121.555 500.83 124.459 494.858 127.315 488.861C130.128 482.951 132.375 475.906 137.096 471.482C137.378 471.217 137.914 471.372 137.889 471.831C137.609 476.749 135.493 480.484 133.566 484.979C130.501 492.129 127.284 499.208 124.14 506.319Z" fill="#011953"/>
<path d="M95.4689 601.877C93.7419 606.32 91.4928 610.569 88.1997 613.874C87.5788 614.497 86.6166 613.877 86.8028 613.008C87.7735 608.463 89.9521 604.305 92.5849 600.583C93.5613 599.201 96.2139 599.965 95.4689 601.877Z" fill="#011953"/>
</g>
</svg>
