<svg width="34" height="62" viewBox="0 0 34 62" fill="none" xmlns="http://www.w3.org/2000/svg">
<path d="M8.49831 19.1417C6.99235 14.293 4.38557 10.6225 0.750411 8.23244C0.703266 8.20163 0.643472 8.19893 0.593644 8.22589C0.544199 8.25286 0.513152 8.30447 0.513152 8.3611C0.464091 21.531 0.541516 34.879 0.744278 48.0343C0.745045 48.0759 0.76191 48.1152 0.791807 48.1437C0.821704 48.1722 0.861566 48.1876 0.902962 48.186C2.34338 48.1344 3.84781 48.0994 5.30241 48.0655L5.31697 48.0651C6.88848 48.0285 8.51364 47.9907 10.0583 47.9322H10.0648C10.1104 47.9322 10.1538 47.9499 10.1863 47.9823C10.2201 48.0158 10.2388 48.0624 10.2373 48.1102C10.1837 50.003 10.754 51.7486 11.9326 53.2982C12.48 54.0182 13.0932 54.7088 13.687 55.3771C14.3757 56.1525 15.0879 56.9545 15.7081 57.8138C15.7084 57.8146 15.7092 57.815 15.7096 57.8157C16.2125 58.5133 16.5977 59.286 16.8545 60.1115C16.8744 60.1758 16.9338 60.2197 17.0009 60.2197C17.068 60.2197 17.1274 60.1758 17.1473 60.1115C17.4045 59.2852 17.7901 58.5121 18.2938 57.8138C18.9136 56.9548 19.6261 56.1529 20.3149 55.3771C20.9082 54.7092 21.5215 54.0186 22.0692 53.2982C23.2475 51.7486 23.8178 50.003 23.7645 48.1102C23.7634 48.0624 23.7818 48.0158 23.8155 47.9819C23.8492 47.948 23.8956 47.9299 23.9431 47.9318C25.4878 47.9904 27.113 48.0281 28.6849 48.0647L28.6994 48.0651C30.1544 48.099 31.6588 48.134 33.0989 48.1857C33.1395 48.1872 33.1801 48.1718 33.21 48.1433C33.2399 48.1148 33.2572 48.0755 33.2576 48.0339C33.4599 34.879 33.5377 21.5307 33.4883 8.36071C33.4879 8.30409 33.4573 8.25247 33.4078 8.22551C33.3584 8.19893 33.2982 8.20124 33.251 8.23206C29.6155 10.6221 27.0087 14.2926 25.5031 19.1413C24.1858 23.3842 23.9182 27.941 23.6599 32.3479L23.6557 32.4176C23.6384 32.7084 23.6215 32.9992 23.6043 33.2901C23.6012 33.3386 23.6215 33.3856 23.6583 33.4172C23.6955 33.4484 23.745 33.4607 23.7921 33.4495C24.3391 33.3216 24.9175 33.4187 25.3782 33.7161C25.9865 34.1086 26.3548 34.8312 26.3169 35.5569C26.2793 36.2656 25.8661 36.9732 25.1827 37.4986L25.0532 37.5984C24.4893 38.0336 23.8504 38.5267 23.2038 38.7747C23.1585 38.7921 23.1083 38.7894 23.065 38.7678C23.0221 38.7462 22.9895 38.707 22.9765 38.6603C21.8036 34.525 20.2796 31.5298 18.0347 28.9478C18.0036 28.912 17.9883 28.8646 17.9929 28.8173C18.2597 26.0104 18.4337 23.155 18.6016 20.3932C18.7698 17.6287 18.9438 14.7706 19.2114 11.9576C19.4015 9.95539 19.5985 7.885 19.3264 5.86238C19.1205 4.33165 18.569 2.18962 17.1113 0.677756C17.0826 0.647711 17.0427 0.630763 17.0013 0.630763C16.9599 0.630763 16.92 0.647711 16.8913 0.677756C15.4336 2.18962 14.8821 4.33165 14.6762 5.86238C14.4041 7.88462 14.6011 9.955 14.7912 11.9576C15.0584 14.7702 15.2324 17.6283 15.401 20.3963C15.5693 23.1569 15.7429 26.0112 16.0097 28.8173C16.0143 28.8646 15.999 28.912 15.9679 28.9478C13.7222 31.5305 12.1982 34.5261 11.0261 38.6603C11.0131 38.707 10.9805 38.7462 10.9376 38.7678C10.8947 38.7894 10.8441 38.7921 10.7988 38.7747C10.1522 38.5267 9.51327 38.0333 8.94906 37.598L8.81951 37.4982C8.1361 36.9728 7.72291 36.2652 7.68534 35.5569C7.64702 34.8312 8.01536 34.1086 8.62403 33.7157C9.08513 33.4179 9.66314 33.3209 10.2101 33.4491C10.2572 33.4603 10.3067 33.4484 10.3439 33.4168C10.3807 33.3856 10.401 33.3382 10.3979 33.2897C10.3791 32.9761 10.3607 32.6622 10.3423 32.3479C10.0828 27.9413 9.81569 23.3846 8.49831 19.1417ZM9.57882 44.7964C9.58648 44.8488 9.57 44.9012 9.53397 44.9397C9.50139 44.9747 9.45578 44.9944 9.40825 44.9944C9.40365 44.9944 9.39905 44.9944 9.39484 44.994C8.4228 44.9177 7.50788 44.8796 6.59602 44.8796C5.69797 44.8796 4.80336 44.9166 3.86199 44.9905C3.81216 44.994 3.76502 44.9774 3.72937 44.9435C3.69411 44.91 3.67456 44.8626 3.67533 44.8137C3.73627 42.087 3.77115 39.3206 3.77882 36.5923C3.7792 36.4971 3.85624 36.4197 3.95091 36.4193C4.07088 36.4189 4.19086 36.4186 4.31083 36.4182C4.50592 36.4174 4.7014 36.4166 4.89573 36.4166C4.97431 36.4166 5.04292 36.4702 5.06285 36.5464C5.24261 37.2444 5.56381 37.9231 5.99234 38.5086C6.8559 39.6888 8.12767 40.2647 9.77161 40.7658C9.81646 40.7796 9.85441 40.8116 9.87549 40.8536C9.89657 40.8956 9.89963 40.9453 9.88392 40.99C9.45846 42.1906 9.36724 43.3288 9.57882 44.7964ZM5.018 34.1232C5.01724 34.1263 5.01647 34.1294 5.01532 34.1329C5.01264 34.1421 5.00919 34.1517 5.00535 34.1598C4.98082 34.2118 4.93253 34.2476 4.87618 34.2565L4.56533 34.3046C4.36985 34.3351 4.17399 34.3655 3.97813 34.3963C3.92983 34.404 3.8777 34.3894 3.83976 34.357C3.80143 34.3243 3.77958 34.2761 3.7792 34.2257C3.7608 27.3932 3.57452 20.4741 3.22496 13.6601C3.22074 13.5808 3.27057 13.5091 3.34608 13.4856C3.36294 13.4802 3.38019 13.4779 3.39744 13.4779C3.45608 13.4779 3.51243 13.5084 3.54424 13.5604C5.22307 16.3052 6.47145 19.0928 7.25491 21.8454C8.11847 24.881 8.42089 27.8967 8.15373 30.8083C8.14683 30.8819 8.09432 30.9431 8.02303 30.9608C6.59142 31.3137 5.38405 32.5848 5.018 34.1232ZM20.4341 38.5991C20.4084 38.6392 20.3674 38.6669 20.321 38.6758C18.9848 38.9288 17.9775 39.7431 17.1516 41.2392C17.1213 41.2943 17.0634 41.3285 17.0005 41.3285C16.9377 41.3285 16.8802 41.2943 16.8495 41.2392C16.0235 39.7431 15.0162 38.9284 13.6801 38.6758C13.6337 38.6669 13.5923 38.6388 13.5666 38.5987C13.5409 38.5587 13.5329 38.5093 13.5444 38.4635C14.0867 36.2741 15.1124 34.3998 16.8706 32.3856C16.9032 32.3483 16.9507 32.3267 17.0001 32.3267C17.0496 32.3267 17.0971 32.3483 17.1297 32.3856C18.8879 34.3998 19.9139 36.2745 20.4559 38.4635C20.4674 38.5097 20.4594 38.559 20.4341 38.5991ZM18.2305 50.7572V50.7464C18.2344 49.8893 18.2382 49.0034 18.2382 48.0381C18.2382 47.9476 18.3056 47.8737 18.3953 47.8656C18.5931 47.8478 18.7966 47.8413 19.0029 47.8413C19.2865 47.8413 19.5747 47.8536 19.8584 47.8656C20.3348 47.886 20.8273 47.9072 21.2762 47.8667C21.3279 47.8621 21.38 47.8817 21.4165 47.9203C21.4529 47.9588 21.4697 48.0116 21.4621 48.0643C21.162 50.1632 20.086 52.1754 18.5103 53.5856C18.4605 53.6303 18.3861 53.6418 18.3252 53.6141C18.2631 53.5864 18.2232 53.5244 18.2232 53.4558C18.2225 52.4986 18.2267 51.6134 18.2305 50.7572ZM20.0707 45.2713C19.5057 45.2944 18.9216 45.3183 18.4019 45.326C18.3532 45.326 18.306 45.3052 18.2735 45.2686C18.2401 45.2313 18.2244 45.1816 18.2305 45.1319C18.4256 43.5241 19.776 42.1378 21.3708 41.9075C21.3789 41.9063 21.3873 41.9059 21.3954 41.9059C21.4602 41.9059 21.5199 41.9421 21.5498 42.0011C22.0021 42.9016 22.1118 43.8785 21.8956 45.0745C21.881 45.1558 21.8105 45.2155 21.7285 45.2166C21.2156 45.2243 20.6342 45.2482 20.0707 45.2713ZM15.6763 53.6141C15.6153 53.6418 15.541 53.6299 15.4907 53.5856C13.915 52.1754 12.8395 50.1628 12.539 48.0643C12.5313 48.0116 12.5482 47.9592 12.5846 47.9203C12.621 47.8814 12.6724 47.8621 12.7253 47.8671C13.1737 47.9075 13.6663 47.8864 14.1431 47.866C14.6306 47.8451 15.1347 47.8236 15.605 47.866C15.6947 47.874 15.7621 47.9484 15.7621 48.0385C15.7621 48.9953 15.7659 49.8801 15.7698 50.7356V50.7575C15.7736 51.6134 15.7774 52.4986 15.7774 53.4566C15.7778 53.5244 15.738 53.5864 15.6763 53.6141ZM15.7272 45.2686C15.6947 45.3052 15.6479 45.326 15.5965 45.326C15.0795 45.3183 14.4953 45.2944 13.9292 45.2713C13.3665 45.2482 12.7851 45.2243 12.2726 45.217C12.1906 45.2159 12.1201 45.1558 12.1055 45.0749C11.8893 43.8789 11.9993 42.902 12.4512 42.0015C12.4807 41.9425 12.5409 41.9063 12.6053 41.9063C12.6134 41.9063 12.6214 41.9067 12.6295 41.9079C14.2247 42.1382 15.5751 43.5245 15.7702 45.1323C15.7759 45.1816 15.7606 45.2313 15.7272 45.2686ZM30.2215 34.2257C30.2215 34.2761 30.1993 34.3243 30.1609 34.357C30.123 34.3894 30.0712 34.404 30.0226 34.3963C29.8252 34.3651 29.6274 34.3347 29.43 34.3039L29.1245 34.2565C29.0682 34.2476 29.0199 34.2114 28.9949 34.1594C28.9907 34.1506 28.9869 34.1406 28.9838 34.1294L28.9823 34.1228C28.6162 32.5844 27.4085 31.3137 25.9777 30.9604C25.9064 30.9427 25.8539 30.8815 25.847 30.8079C25.5798 27.8959 25.8822 24.8803 26.7458 21.845C27.5288 19.0924 28.7772 16.3048 30.4564 13.56C30.4883 13.5076 30.5446 13.4775 30.6032 13.4775C30.6201 13.4775 30.6374 13.4802 30.6546 13.4852C30.7301 13.5087 30.7796 13.5804 30.7757 13.6597C30.4265 20.4745 30.2399 27.3936 30.2215 34.2257ZM28.0087 38.5086C28.4373 37.9231 28.7584 37.2444 28.9382 36.5464C28.9578 36.4698 29.0268 36.4166 29.1053 36.4166C29.3 36.4166 29.4951 36.4174 29.6906 36.4182C29.8106 36.4186 29.9306 36.4189 30.0505 36.4193C30.1452 36.4197 30.2222 36.4971 30.2226 36.5923C30.2303 39.3194 30.2652 42.0858 30.3261 44.8137C30.3273 44.8626 30.3077 44.91 30.2721 44.9435C30.2364 44.9774 30.1889 44.994 30.1402 44.9905C28.2425 44.8415 26.5357 44.8426 24.607 44.994C24.5545 44.9982 24.5027 44.9778 24.4671 44.9397C24.4311 44.9012 24.4146 44.8488 24.4222 44.7964C24.6334 43.3292 24.5426 42.1906 24.1171 40.99C24.1014 40.9457 24.1045 40.896 24.1256 40.8536C24.1467 40.8116 24.1846 40.7796 24.2295 40.7658C25.8734 40.2647 27.1452 39.6888 28.0087 38.5086Z" fill="#222E38"/>
<path d="M3.73947 34.4741C3.79888 34.525 3.87401 34.5527 3.95105 34.5527C3.96792 34.5527 3.98478 34.5516 4.00126 34.5489C4.20019 34.5177 4.39912 34.4868 4.59805 34.456L4.89894 34.4094C5.00549 34.3929 5.09672 34.3243 5.14309 34.2265C5.15038 34.2107 5.15689 34.1937 5.16188 34.1768C5.16341 34.171 5.16533 34.1652 5.16647 34.1594C5.51949 32.6757 6.68202 31.4504 8.05843 31.1111C8.19335 31.0779 8.29224 30.962 8.30527 30.8233C8.57434 27.8924 8.27001 24.8579 7.40108 21.8038C6.61418 19.0377 5.36004 16.2374 3.67354 13.4806C3.59535 13.3531 3.44127 13.295 3.29945 13.3393C3.15725 13.3836 3.06296 13.5191 3.07062 13.6686C3.42019 20.4803 3.60647 27.3971 3.62487 34.2268C3.62563 34.3216 3.66741 34.4125 3.73947 34.4741ZM7.67629 30.5379C6.2351 30.9863 5.03156 32.2551 4.58885 33.7947L4.49878 33.8085C4.42442 33.8201 4.35006 33.8316 4.27608 33.8432C4.25347 27.5685 4.08942 21.2244 3.78815 14.9574C6.78244 20.2414 8.08948 25.4761 7.67629 30.5379Z" fill="#222E38"/>
<path d="M9.81545 40.6186C8.20063 40.1264 6.95377 39.5636 6.11513 38.4177C5.6981 37.8476 5.38534 37.1874 5.21056 36.5083C5.17338 36.3639 5.04382 36.2629 4.8951 36.2629C4.70039 36.2629 4.50491 36.2637 4.30943 36.2645C4.18946 36.2649 4.06949 36.2652 3.9499 36.2656C3.77052 36.266 3.62525 36.412 3.62487 36.5923C3.6172 39.3186 3.58232 42.0835 3.52138 44.8106C3.51946 44.9031 3.55626 44.9921 3.62334 45.056C3.69041 45.1196 3.7801 45.1515 3.87248 45.1446C5.76211 44.9963 7.46164 44.9974 9.38233 45.1481C9.39076 45.1488 9.39919 45.1492 9.40762 45.1492C9.49731 45.1492 9.58355 45.1119 9.64526 45.0456C9.71272 44.9728 9.74415 44.8734 9.72997 44.7748C9.52223 43.3338 9.61153 42.2176 10.0278 41.0423C10.0577 40.958 10.0519 40.8652 10.0117 40.785C9.97183 40.7045 9.90092 40.6444 9.81545 40.6186ZM9.03391 44.4651C8.2037 44.4085 7.39801 44.38 6.59501 44.38C5.79469 44.38 4.99706 44.4081 4.18103 44.4643C4.23507 41.9583 4.2665 39.4238 4.2757 36.9185C4.28797 36.9185 4.29985 36.9185 4.31211 36.9185C4.42442 36.9181 4.53672 36.9178 4.64865 36.9174C4.85218 37.5895 5.17491 38.2374 5.5904 38.8052C6.56205 40.1329 7.98905 40.7257 9.30682 41.1456C8.98562 42.1898 8.89937 43.2395 9.03391 44.4651Z" fill="#222E38"/>
<path d="M15.594 45.4801C15.5955 45.4801 15.597 45.4801 15.5986 45.4801C15.691 45.4801 15.7791 45.4408 15.8408 45.3715C15.9037 45.301 15.9332 45.207 15.9221 45.113C15.7189 43.4386 14.3126 41.9949 12.6511 41.7549C12.5123 41.7353 12.377 41.8062 12.3138 41.9317C11.8458 42.8639 11.7315 43.8712 11.9542 45.1022C11.9822 45.2563 12.1144 45.3688 12.2701 45.3711C12.781 45.3788 13.3617 45.4023 13.9236 45.4254C14.4893 45.4485 15.0746 45.4724 15.594 45.4801ZM12.7929 42.4471C13.9451 42.7121 14.911 43.6682 15.2046 44.8168C14.8006 44.806 14.3697 44.7883 13.9497 44.771C13.4809 44.7517 12.9991 44.7321 12.5522 44.7213C12.4272 43.8438 12.5035 43.1251 12.7929 42.4471Z" fill="#222E38"/>
<path d="M15.9152 48.0381C15.9152 47.8686 15.7864 47.7273 15.6185 47.7119C15.1375 47.6687 14.6281 47.6903 14.1356 47.7115C13.6641 47.7319 13.1766 47.7527 12.7384 47.713C12.6392 47.7038 12.5414 47.7411 12.4728 47.8139C12.4042 47.8867 12.3728 47.9869 12.387 48.0859C12.6925 50.2202 13.7864 52.2663 15.3885 53.7004C15.4495 53.7547 15.5269 53.7832 15.6055 53.7832C15.6507 53.7832 15.6959 53.7739 15.7389 53.7547C15.8562 53.7019 15.9313 53.5848 15.9313 53.4558C15.9313 52.4936 15.9275 51.605 15.9232 50.7452C15.9194 49.887 15.9152 48.9988 15.9152 48.0381ZM13.0984 48.3883C13.451 48.3964 13.8113 48.3809 14.1632 48.3659C14.5303 48.3501 14.9075 48.334 15.2636 48.3463C15.2644 49.1914 15.2678 49.9818 15.2713 50.7487C15.2739 51.3711 15.277 52.0086 15.2782 52.6781C14.1777 51.4929 13.4054 49.9775 13.0984 48.3883Z" fill="#222E38"/>
<path d="M33.9833 7.76827C33.9829 7.6504 33.9193 7.54178 33.8165 7.484C33.7142 7.42623 33.5885 7.42854 33.4884 7.48978C29.4853 9.93264 26.6382 13.8026 25.0265 18.9926C23.6907 23.294 23.4216 27.882 23.1617 32.319C23.1338 32.7993 23.1054 33.2789 23.0759 33.7577C23.0686 33.8755 23.1253 33.9884 23.2238 34.0527C23.3223 34.117 23.4481 34.1228 23.5519 34.0681C24.0291 33.8174 24.6547 33.8451 25.1081 34.1378C25.5612 34.4302 25.8467 34.9903 25.8187 35.5307C25.7888 36.0927 25.4466 36.6651 24.8793 37.1011L24.7486 37.2016C24.3116 37.539 23.8268 37.9131 23.3496 38.16C22.1859 34.1921 20.6803 31.2643 18.5009 28.7252C18.7608 25.9549 18.9321 23.1442 19.0977 20.4244C19.2659 17.6641 19.4396 14.8099 19.706 12.0053C19.8988 9.97463 20.0985 7.87497 19.8186 5.79534C19.5879 4.08087 18.9501 1.69887 17.2215 0.087245C17.0965 -0.0290817 16.9033 -0.0290817 16.7784 0.087245C15.0497 1.69926 14.4119 4.08126 14.1812 5.79573C13.9014 7.87536 14.1011 9.97501 14.2939 12.0057C14.5602 14.8103 14.7343 17.6641 14.9021 20.4244C15.0677 23.1442 15.2391 25.9553 15.4989 28.7256C13.3188 31.2651 11.8132 34.1933 10.6503 38.1604C10.1727 37.9131 9.68819 37.539 9.25124 37.2016L9.12092 37.1011C8.55364 36.6651 8.21136 36.0927 8.18146 35.5307C8.15272 34.9903 8.43827 34.4302 8.89171 34.1375C9.34514 33.8447 9.97068 33.817 10.4479 34.0677C10.5521 34.1224 10.6775 34.1166 10.776 34.0523C10.8745 33.988 10.9312 33.8755 10.9239 33.7573C10.8944 33.2785 10.8664 32.7989 10.8385 32.319C10.5782 27.882 10.3091 23.2936 8.97373 18.9923C7.36198 13.8026 4.51487 9.93226 0.51175 7.4894C0.411327 7.42815 0.28599 7.42584 0.183267 7.48362C0.0809276 7.5414 0.0173008 7.65002 0.0165342 7.76789C-0.0375103 21.2479 0.041065 34.9105 0.250344 48.3759C0.251877 48.4641 0.28829 48.5477 0.351916 48.6086C0.415543 48.669 0.501018 48.7018 0.588409 48.6983C2.13002 48.6402 3.75557 48.602 5.32784 48.5654C6.78704 48.5315 8.29185 48.4965 9.73534 48.4449C9.75412 50.3211 10.359 52.0545 11.5361 53.6021C12.0953 54.3375 12.7151 55.0354 13.3145 55.7103C13.9953 56.4768 14.699 57.2691 15.3038 58.1077C16.0651 59.1635 16.5396 60.408 16.676 61.7069C16.6937 61.8737 16.8332 62 16.9999 62C17.1666 62 17.3065 61.8737 17.3238 61.7069C17.4602 60.4076 17.9348 59.1631 18.696 58.1077C19.3008 57.2691 20.0049 56.4768 20.6853 55.7103C21.2847 55.0354 21.9045 54.3375 22.4638 53.6021C23.6409 52.0545 24.2457 50.3211 24.2645 48.4449C25.708 48.4965 27.2128 48.5315 28.672 48.5654C30.2442 48.602 31.8698 48.6398 33.4114 48.6983C33.4988 48.7018 33.5843 48.6694 33.6479 48.6086C33.7115 48.5481 33.7479 48.4641 33.7495 48.3759C33.9591 34.9105 34.0377 21.2479 33.9833 7.76827ZM33.1032 48.0316C31.6575 47.9799 30.1492 47.9449 28.6873 47.9106C27.115 47.874 25.4895 47.8363 23.9479 47.7777C23.8589 47.7743 23.7704 47.8085 23.7064 47.8725C23.6424 47.9364 23.6075 48.0238 23.6102 48.1144C23.6627 49.971 23.1031 51.6835 21.9463 53.2046C21.402 53.9203 20.7907 54.6086 20.1996 55.2746C19.5082 56.0531 18.7933 56.8581 18.1686 57.7236C17.6542 58.4366 17.2602 59.229 16.9999 60.066C16.7396 59.2293 16.3456 58.437 15.8312 57.7236C15.2069 56.8585 14.492 56.0531 13.8006 55.2746C13.2091 54.6086 12.5978 53.9203 12.0539 53.205C10.8975 51.6843 10.3375 49.9717 10.39 48.1148C10.3927 48.0242 10.3578 47.9368 10.2938 47.8729C10.2329 47.812 10.1501 47.7781 10.0646 47.7781C10.0604 47.7781 10.0565 47.7781 10.0523 47.7785C8.51071 47.8367 6.88516 47.8748 5.31289 47.9114C3.85101 47.9453 2.34313 47.9807 0.89696 48.0323C0.694581 34.8762 0.616772 21.5345 0.666217 8.36223C4.27186 10.7327 6.85603 14.3719 8.35203 19.1887C9.66404 23.4134 9.93043 27.961 10.1884 32.3587C10.2068 32.673 10.2252 32.9869 10.244 33.3004C9.66826 33.1656 9.04157 33.2638 8.54023 33.5874C7.88594 34.0096 7.49 34.7861 7.5314 35.5661C7.57126 36.3199 8.00668 37.0691 8.72536 37.6219L8.85491 37.7216C9.42717 38.163 10.0757 38.6638 10.7434 38.9199C10.8285 38.9527 10.9239 38.9481 11.0056 38.9068C11.0872 38.8656 11.1482 38.7921 11.1731 38.7039C12.3387 34.5924 13.8531 31.6149 16.0831 29.0503C16.1421 28.9825 16.1705 28.8935 16.162 28.8038C15.8956 25.9992 15.7216 23.1453 15.5537 20.3851C15.3855 17.6194 15.2111 14.7598 14.9435 11.9441C14.7542 9.95036 14.5583 7.88884 14.8278 5.88432C15.0336 4.3532 15.5794 2.26047 17.0011 0.786361C18.4227 2.26047 18.9681 4.3532 19.1743 5.88432C19.4442 7.88922 19.2479 9.95075 19.0586 11.9441C18.791 14.7598 18.617 17.6198 18.4484 20.3855C18.2801 23.1453 18.1065 25.9996 17.8401 28.8038C17.8317 28.8935 17.86 28.9825 17.919 29.0503C20.1483 31.6141 21.6627 34.5916 22.829 38.7039C22.854 38.7921 22.9149 38.8656 22.9965 38.9068C23.0782 38.9481 23.1732 38.9527 23.2587 38.9199C23.9264 38.6638 24.5749 38.1634 25.1468 37.7216L25.2764 37.6219C25.9954 37.0691 26.4305 36.3199 26.4703 35.5657C26.511 34.7857 26.115 34.0092 25.4611 33.587C24.9598 33.2635 24.3327 33.1652 23.7574 33.3001C23.7762 32.9865 23.7946 32.6722 23.813 32.3579C24.0709 27.9602 24.3373 23.4131 25.6493 19.1883C27.1453 14.3715 29.7295 10.7323 33.3351 8.36185C33.3834 21.5337 33.3056 34.8751 33.1032 48.0316Z" fill="#222E38"/>
<path d="M30.7004 13.3385C30.5582 13.2942 30.4041 13.3524 30.3263 13.4799C28.6402 16.2366 27.386 19.037 26.5987 21.803C25.7298 24.8568 25.4255 27.8917 25.6946 30.8225C25.7072 30.9616 25.8065 31.0772 25.9414 31.1103C27.3178 31.45 28.4803 32.6749 28.8333 34.1587C28.8345 34.1629 28.8353 34.1671 28.8364 34.171C28.8414 34.1899 28.8483 34.2083 28.8567 34.2257C28.9031 34.3235 28.9943 34.3921 29.1009 34.4086L29.3972 34.4549C29.5976 34.4861 29.7981 34.5173 29.9985 34.5485C30.0154 34.5512 30.0323 34.5523 30.0488 34.5523C30.1258 34.5523 30.2009 34.525 30.2603 34.4737C30.3328 34.4117 30.3742 34.3212 30.3746 34.2257C30.393 27.3963 30.5792 20.4799 30.9288 13.6674C30.9365 13.5188 30.8426 13.3832 30.7004 13.3385ZM29.7241 33.8432C29.6482 33.8312 29.5723 33.8197 29.4968 33.8078L29.4113 33.7947C28.9686 32.2551 27.7651 30.9863 26.3239 30.5379C25.9107 25.4758 27.2178 20.2414 30.2124 14.9574C29.9108 21.2248 29.7467 27.5693 29.7241 33.8432Z" fill="#222E38"/>
<path d="M30.0499 36.2653C29.9303 36.2649 29.8103 36.2645 29.6904 36.2641C29.4949 36.2633 29.2994 36.2626 29.1047 36.2626C28.956 36.2626 28.8264 36.3635 28.7893 36.5079C28.6145 37.187 28.3017 37.8476 27.8847 38.4173C27.0464 39.5632 25.7992 40.126 24.1844 40.6183C24.0993 40.6441 24.028 40.7042 23.9881 40.7843C23.9479 40.8644 23.9421 40.9572 23.972 41.0416C24.3883 42.2168 24.4772 43.3331 24.2698 44.774C24.2557 44.8727 24.2867 44.972 24.3545 45.0448C24.4163 45.1111 24.5025 45.1484 24.5922 45.1484C24.6006 45.1484 24.6091 45.1481 24.6175 45.1473C26.5382 44.9967 28.2373 44.9955 30.1273 45.1438C30.2197 45.1508 30.3098 45.1188 30.3765 45.0552C30.4432 44.9917 30.4803 44.9027 30.4784 44.8099C30.4175 42.0824 30.3826 39.3171 30.3749 36.5915C30.3746 36.4116 30.2293 36.2656 30.0499 36.2653ZM24.9659 44.4651C25.1008 43.2395 25.0146 42.1898 24.693 41.1456C26.0108 40.7257 27.4381 40.1329 28.4098 38.8052C28.8249 38.2378 29.1476 37.5895 29.3512 36.9174C29.4631 36.9178 29.5754 36.9182 29.6877 36.9185C29.7 36.9185 29.7118 36.9185 29.7241 36.9185C29.7329 39.4226 29.7647 41.9579 29.8188 44.4644C28.1837 44.3519 26.6233 44.3519 24.9659 44.4651Z" fill="#222E38"/>
<path d="M20.3487 38.8271C20.4369 38.8106 20.5143 38.7582 20.5626 38.6823C20.6109 38.6064 20.6262 38.514 20.6044 38.4265C20.0559 36.2121 19.0199 34.3177 17.2444 32.2839C17.1827 32.2131 17.0934 32.1726 16.9995 32.1726C16.9056 32.1726 16.8163 32.2131 16.7546 32.2839C14.9796 34.3174 13.9431 36.2117 13.3946 38.4265C13.3728 38.514 13.3881 38.6064 13.4364 38.6823C13.4847 38.7582 13.5621 38.8106 13.6503 38.8271C14.9382 39.071 15.9117 39.861 16.7144 41.3139C16.7718 41.4179 16.8807 41.4826 16.9991 41.4826C17.1176 41.4826 17.2264 41.4183 17.2839 41.3139C18.0873 39.861 19.0609 39.071 20.3487 38.8271ZM16.9999 40.5177C16.2264 39.314 15.2759 38.5718 14.1118 38.2609C14.6254 36.3916 15.53 34.7445 16.9999 33.0012C18.4698 34.7445 19.374 36.3916 19.888 38.2609C18.724 38.5718 17.7734 39.314 16.9999 40.5177Z" fill="#222E38"/>
<path d="M21.3491 41.7549C19.6876 41.9949 18.2812 43.4386 18.0781 45.113C18.0666 45.207 18.0961 45.301 18.1594 45.3715C18.2211 45.4404 18.3092 45.4801 18.4016 45.4801C18.4031 45.4801 18.4047 45.4801 18.4062 45.4801C18.9256 45.4724 19.5109 45.4485 20.0766 45.4254C20.6385 45.4023 21.2192 45.3784 21.7301 45.3711C21.8857 45.3688 22.018 45.2563 22.046 45.1022C22.2683 43.8712 22.1541 42.8639 21.6864 41.9317C21.6232 41.8062 21.4879 41.7353 21.3491 41.7549ZM21.4476 44.7213C21.0007 44.7321 20.5189 44.7517 20.0502 44.771C19.6301 44.7883 19.1996 44.806 18.7952 44.8168C19.0889 43.6682 20.0548 42.7121 21.2069 42.4471C21.4967 43.1251 21.5726 43.8438 21.4476 44.7213Z" fill="#222E38"/>
<path d="M21.2614 47.7134C20.8233 47.7527 20.3357 47.7319 19.8643 47.7119C19.3717 47.6907 18.8623 47.6687 18.3813 47.7123C18.2134 47.7273 18.0846 47.869 18.0846 48.0385C18.0846 48.9992 18.0808 49.8874 18.077 50.746C18.0731 51.6054 18.0689 52.4944 18.0689 53.4566C18.0689 53.5856 18.1444 53.7027 18.2613 53.7555C18.3043 53.7747 18.3495 53.784 18.3947 53.784C18.4733 53.784 18.5507 53.7555 18.6117 53.7012C20.2138 52.2671 21.3078 50.2206 21.6132 48.0867C21.6274 47.9877 21.5956 47.8875 21.5274 47.8147C21.4584 47.7415 21.3603 47.7042 21.2614 47.7134ZM18.7213 52.6781C18.7228 52.0086 18.7255 51.3712 18.7282 50.7487C18.7316 49.9818 18.7351 49.1914 18.7358 48.3463C19.0919 48.3339 19.4691 48.3501 19.8363 48.3659C20.1882 48.3809 20.5484 48.3964 20.9011 48.3883C20.5948 49.9775 19.8225 51.4929 18.7213 52.6781Z" fill="#222E38"/>
</svg>
