<svg width="268" height="268" viewBox="0 0 268 268" fill="none" xmlns="http://www.w3.org/2000/svg">
<path fill-rule="evenodd" clip-rule="evenodd" d="M249.506 115.33C249.252 113.754 248.963 112.169 248.644 110.605C244.75 111.444 244.385 111.678 243.707 111.233C243.029 110.787 242.892 109.898 243.291 109.259C243.712 108.587 243.941 108.683 248.037 107.801C247.68 106.25 247.288 104.693 246.87 103.161C236.956 105.995 235.734 106.854 235.236 104.983C234.709 103.141 236.16 103.239 246.08 100.403C245.622 98.8781 245.125 97.3419 244.601 95.8254C241.425 96.9689 239.919 97.9306 239.162 96.492C238.804 96.1229 238.868 94.9023 239.898 94.4608C244.105 92.6768 244.355 94.5978 241.861 88.6766L232.465 92.7689C230.708 93.5228 229.605 90.8904 231.322 90.1545L240.723 86.0607C238.245 80.5582 239.24 81.4404 235.186 83.5369C233.494 84.3813 232.217 81.8622 233.838 80.9902C237.927 78.893 238.069 80.219 235.01 74.9904C226.12 80.3252 225.26 81.4066 224.262 79.7854C223.26 78.1564 224.713 77.8392 233.538 72.5429C230.503 67.6322 231.661 67.9958 227.709 70.7517C226.677 71.4403 225.219 70.5542 225.489 69.2699C225.64 68.5498 225.888 68.5427 229.301 66.1629C228.374 64.8628 227.41 63.5659 226.427 62.2981C218.305 68.7717 217.573 69.9663 216.426 68.4624C215.219 66.9868 216.505 66.5485 224.646 60.0599C221.023 55.6167 222.215 55.8284 218.653 59.0306C217.306 60.3511 215.281 58.2467 216.718 56.9404C220.106 53.8602 220.579 55.1036 216.303 50.8634C209.012 58.3845 208.49 59.5673 207.158 58.2546C205.66 56.8664 207.538 55.7796 214.223 48.8519C213.062 47.7564 211.872 46.6782 210.676 45.6379C208.905 47.7194 207.616 50.0323 206.144 48.8275C204.646 47.5777 206.534 46.0943 208.486 43.7775C207.27 42.7717 206.016 41.777 204.748 40.8114C198.585 49.1383 198.192 50.5061 196.643 49.3453C195.105 48.1908 196.271 47.4487 202.446 39.1052C201.153 38.1711 199.829 37.2543 198.499 36.3736C196.751 39.0934 196.015 41.1175 194.394 40.1196C192.765 39.1162 194.461 37.3613 196.094 34.8217C194.741 33.9734 193.364 33.1478 191.986 32.3609C186.947 41.4425 186.737 42.8158 185.07 41.9171C183.349 40.9349 184.49 39.9575 189.467 30.964C188.068 30.2101 186.639 29.4774 185.207 28.7794C183.877 31.6022 183.342 33.8396 181.634 33.0495C179.882 32.1743 181.245 30.4375 182.613 27.5556C181.166 26.8961 179.695 26.2595 178.225 25.6598C174.368 35.4371 174.376 36.7388 172.577 36.0211C170.78 35.3805 171.802 34.1181 175.538 24.6013C174.051 24.0378 172.54 23.5004 171.032 22.9983C169.817 26.7616 169.85 27.2204 169.104 27.6036C168.003 28.171 166.693 27.1031 167.105 25.8683C168.486 21.5156 169.525 22.3459 163.68 20.8183C161.192 30.8987 161.359 32.2161 159.482 31.8423C157.406 31.4448 158.628 29.2342 160.91 20.1313C155.025 18.747 156.329 18.4983 155.542 22.988C155.173 24.8303 152.437 24.3778 152.688 22.4961C153.259 17.9836 154.984 18.7242 148.656 17.9246L147.507 28.1041C147.33 29.4373 145.703 29.7686 144.958 28.8581C144.437 28.223 144.558 28.5716 145.83 17.602C140.073 17.018 141.068 16.3184 140.851 21.1394C140.722 23.0793 137.863 22.8416 137.987 20.982C138.192 16.4412 139.406 16.9661 133.393 16.996C133.569 28.271 133.688 27.6878 133.218 28.2222C132.317 29.2484 130.703 28.5637 130.688 27.3148L130.528 17.0416C128.932 17.0873 127.321 17.1668 125.726 17.2785C125.963 20.1447 126.694 22.5072 124.772 22.7645C122.705 23.0234 123.052 19.7787 122.863 17.5138C121.282 17.6641 119.69 17.8483 118.12 18.0624C119.616 28.1584 120.339 29.619 118.415 29.8622C116.539 30.1156 116.834 28.862 115.268 18.4889C113.707 18.7415 112.135 19.0295 110.583 19.3467C111.222 22.3151 112.187 24.536 110.309 24.9122C108.345 25.3064 108.339 22.5906 107.772 19.9566C106.21 20.3162 104.644 20.7113 103.104 21.1331C106.135 31.625 106.233 31.3693 105.832 32.098C105.438 32.8126 104.533 33.0148 103.872 32.6505C103.172 32.2649 103.422 32.5781 100.376 21.9169C94.571 23.664 95.5838 22.7983 97.1326 27.1015C97.785 28.9289 95.0431 29.8079 94.4277 28.0829C92.79 23.5326 93.943 23.9103 88.6537 26.1406C92.7641 35.5851 93.7754 36.6734 92.0117 37.4289C90.2261 38.1947 90.1443 36.7907 86.0095 27.2928C84.563 27.9459 83.1213 28.6314 81.7111 29.3373C83.1315 32.1326 84.5355 33.8726 82.9049 34.7517C81.1562 35.6284 80.5393 33.3044 79.1691 30.6523C77.7605 31.4015 76.3526 32.1885 74.9714 32.9967C80.3 41.8801 81.3931 42.752 79.7688 43.7531C78.0776 44.8005 77.5417 42.8331 72.5247 34.47C71.1648 35.3112 69.816 36.184 68.5041 37.0717C70.2732 39.634 71.892 41.1529 70.3897 42.2799C68.7748 43.3997 67.854 41.1978 66.144 38.7117C64.851 39.6341 63.5611 40.5934 62.2988 41.5732C69.1659 50.2283 69.0605 49.8332 68.9857 50.6162C68.9078 51.4347 68.1484 51.9966 67.3708 51.9061C66.5776 51.8132 66.9317 52.01 60.0465 43.3667C55.3845 47.1709 55.9787 45.9802 59.0274 49.3728C60.3007 50.7737 58.1656 52.6592 56.9285 51.2993C53.8491 47.9106 55.0909 47.4361 50.8531 51.7133C58.3876 59.0203 59.5523 59.5311 58.2443 60.8626C56.912 62.302 56.1164 60.8186 48.8416 53.7941C47.7556 54.9454 46.6837 56.129 45.6457 57.3221C48.8093 60.0174 49.0706 60.0505 49.1257 60.8516C49.1768 61.5914 48.6275 62.3122 47.8477 62.3862C47.0678 62.4594 47.0032 62.2241 43.7719 59.5303C42.7614 60.7525 41.762 62.0132 40.7924 63.2881C49.2083 69.5201 50.4722 69.8664 49.3366 71.3797C48.1829 72.9191 47.4471 71.7567 39.0989 65.575C38.1647 66.868 37.2487 68.1925 36.3681 69.5233C39.0792 71.2672 41.1111 72.0077 40.1133 73.6289C39.1115 75.2587 37.373 73.573 34.817 71.9298C33.9678 73.2842 33.143 74.6614 32.3569 76.0378C41.9571 81.3696 41.8037 81.0918 42.0193 81.8929C42.2184 82.6342 41.7769 83.418 41.0277 83.6392C40.2179 83.88 40.5587 83.8737 30.9663 78.5467C28.0946 83.8761 28.1977 82.5469 32.3317 84.5112C34.0819 85.258 32.8346 87.9337 31.1127 87.072C26.9748 85.1407 27.9341 84.22 25.6582 89.8036C36.1367 93.9548 35.6535 93.6235 35.9667 94.2688C36.335 95.0235 35.9683 95.9293 35.2144 96.2418C34.4982 96.5392 34.9492 96.5581 24.6099 92.4635C22.4607 98.1321 22.3875 96.8029 26.7505 98.1769C28.5959 98.8356 27.6288 101.514 25.8651 100.927C21.5156 99.5108 22.3521 98.4807 20.8246 104.323L30.7577 106.816C32.6229 107.312 31.8847 110.064 30.066 109.582L20.1313 107.121C18.747 113.011 18.4983 111.705 22.9864 112.493C23.7734 112.65 24.2825 113.392 24.1393 114.153C23.8607 116.063 21.5289 115.144 18.6211 114.633C18.3582 116.203 18.1245 117.796 17.9246 119.38C28.2544 120.546 29.5812 120.24 29.3569 122.094C29.1956 124.139 27.4037 123.344 17.6019 122.207C17.4414 123.792 17.3115 125.394 17.2139 126.981C21.4557 127.204 21.6116 127.086 22.1136 127.621C22.9966 128.56 22.2663 130.145 20.9812 130.052C16.1862 129.799 16.9723 128.88 16.996 134.645C27.3368 134.452 28.592 133.935 28.7187 135.836C28.8383 137.78 27.2707 137.319 17.0416 137.511C17.0873 139.111 17.1667 140.722 17.2785 142.317C21.5455 141.963 21.6698 141.818 22.2498 142.318C23.2689 143.195 22.674 144.737 21.4188 144.821C16.6237 145.221 17.2816 144.201 18.0623 149.923C28.049 148.41 29.593 147.673 29.859 149.629C30.1077 151.497 28.7832 151.218 18.4833 152.746C18.7375 154.32 19.0271 155.902 19.3459 157.464C22.3175 156.824 24.5336 155.856 24.9098 157.738C25.0656 158.517 24.5871 159.29 23.8048 159.446C19.0814 160.464 19.6079 159.373 21.1221 164.907C31.603 161.921 31.3543 161.804 32.1042 162.229C32.8094 162.63 33.0179 163.511 32.6339 164.187C32.2396 164.882 32.5631 164.63 21.9153 167.673C23.6624 173.481 22.7967 172.467 27.0983 170.918C28.9084 170.271 29.8071 172.972 28.0805 173.589C23.7545 175.148 23.786 173.816 26.1335 179.388C35.6181 175.271 36.6695 174.279 37.4234 176.04C38.1828 177.811 36.7985 177.869 27.273 182.004C27.9317 183.467 28.6227 184.921 29.3333 186.34C32.1168 184.901 33.8435 183.471 34.7469 185.15C35.6031 186.862 33.5051 187.409 30.6491 188.886C31.3983 190.294 32.1845 191.702 32.9935 193.084C41.836 187.778 42.8063 186.644 43.72 188.299C44.7257 189.973 43.2029 190.288 34.466 195.532C35.3072 196.891 36.1792 198.239 37.0669 199.552C39.5443 197.823 41.1269 196.14 42.2735 197.668C43.3973 199.174 41.2166 200.16 38.7054 201.911C39.6277 203.205 40.5878 204.495 41.5676 205.758C50.1291 198.935 49.8056 198.979 50.6351 199.076C51.8226 199.215 52.4066 200.766 51.3741 201.626L43.3611 208.013C44.3676 209.246 45.4041 210.466 46.4515 211.649C48.0538 210.193 50.1125 207.564 51.3717 209.12C52.6072 210.602 50.5407 211.79 48.3804 213.775C49.4586 214.934 50.5745 216.084 51.7062 217.207L58.8228 209.833C60.1559 208.498 62.2264 210.488 60.8586 211.856L53.7861 219.217C54.9398 220.305 56.1235 221.377 57.3157 222.414C59.4634 219.891 60.3904 218.138 61.8471 219.232C63.4871 220.45 60.9405 222.571 59.5058 224.274C60.7288 225.286 61.9887 226.285 63.2629 227.255C69.3729 218.956 69.7971 217.552 71.3647 218.727C72.9025 219.881 71.7393 220.621 65.5671 228.961C66.8593 229.894 68.1838 230.81 69.5146 231.691C71.2577 228.978 71.9927 226.954 73.6139 227.953C74.2663 228.388 74.4552 229.27 74.0491 229.929C71.5741 233.781 70.7894 232.709 76.0275 235.701L81.0091 226.726C81.9039 225.061 84.4088 226.461 83.5148 228.121L78.5222 237.085C79.9286 237.842 81.3648 238.578 82.8042 239.278C83.7564 237.221 84.5205 234.111 86.3888 235.03C88.1264 235.899 86.6265 237.87 85.3988 240.501C86.8445 241.16 88.3169 241.795 89.7893 242.396C93.6258 232.673 93.6486 231.326 95.3949 232.05C97.2215 232.729 96.185 234.007 92.4501 243.443C93.9437 244.008 95.4626 244.549 96.9791 245.053C97.8999 242.128 98.1336 239.769 99.9767 240.384C101.906 241.074 100.456 243.581 99.6957 245.918C101.219 246.383 102.766 246.821 104.304 247.223C106.801 237.235 106.668 235.839 108.5 236.232C110.412 236.648 109.541 238.064 107.103 247.915C108.646 248.278 110.21 248.611 111.766 248.91C112.491 244.954 112.41 244.614 113.063 244.159C113.671 243.737 114.574 243.842 115.041 244.494C115.508 245.148 115.323 245.37 114.606 249.42C116.168 249.682 117.75 249.913 119.324 250.111L120.499 239.978C120.639 238.163 123.49 238.329 123.362 240.261C122.538 251.939 120.05 250.403 126.952 250.828C127.118 247.68 126.779 245.44 128.64 245.574C130.581 245.696 129.976 247.935 129.816 250.97C131.409 251.029 133.019 251.058 134.613 251.05C134.419 240.655 133.918 239.476 135.803 239.35C137.857 239.206 137.296 241.3 137.478 251.005C139.062 250.961 140.662 250.883 142.247 250.773C141.983 247.589 141.333 245.546 143.24 245.308C145.158 245.076 144.892 247.898 145.11 250.539C146.699 250.39 148.3 250.206 149.883 249.99C148.386 240.096 147.609 238.47 149.56 238.21C151.482 237.96 151.177 239.22 152.706 249.57C158.39 248.654 157.609 249.579 156.596 244.876C156.224 243.014 158.915 242.415 159.4 244.234C160.563 248.648 158.798 248.595 164.87 246.934L162.053 237.07C161.706 235.768 163.065 234.821 164.146 235.434C164.841 235.829 164.588 235.5 167.628 246.143C173.399 244.408 172.388 245.272 170.879 240.982C170.175 239.274 172.891 238.153 173.547 239.989C175.099 244.303 173.766 244.276 179.351 241.923C175.217 232.426 174.249 231.392 175.997 230.643C177.764 229.885 177.821 231.259 181.967 240.783C183.425 240.126 184.875 239.437 186.289 238.729C184.85 235.943 183.428 234.223 185.103 233.321C186.867 232.438 187.515 234.858 188.836 237.413C195.056 234.104 193.282 236.538 187.723 226.271C187.316 225.517 187.658 224.621 188.266 224.305C189.941 223.402 190.17 224.744 195.48 233.597C200.612 230.421 199.866 231.525 197.27 227.765C196.559 226.818 197.408 225.327 198.675 225.547C199.467 225.682 199.47 225.932 201.858 229.357C203.144 228.441 204.428 227.485 205.686 226.51C199.257 218.366 198.063 217.626 199.559 216.482C201.051 215.258 201.519 216.618 207.959 224.702C209.19 223.697 210.409 222.66 211.594 221.611C209.485 219.291 207.654 217.976 209.05 216.706C209.666 216.141 210.559 216.202 211.079 216.774C214.153 220.155 212.914 220.632 217.15 216.356C209.294 208.77 209.346 209.055 209.346 208.217C209.346 207.495 209.929 206.786 210.766 206.771C211.63 206.752 211.367 206.746 219.146 214.29C223.106 210.092 223.053 211.299 219.359 208.22C217.891 207.032 219.788 204.749 221.227 206.034C224.724 208.949 223.556 209.585 227.197 204.795C218.832 198.601 217.522 198.226 218.672 196.692C219.825 195.154 220.561 196.315 228.902 202.492C229.836 201.198 230.752 199.873 231.632 198.543C228.35 196.434 227.857 196.321 227.686 195.51C227.532 194.773 228.01 193.971 228.803 193.812C229.58 193.657 229.707 193.902 233.182 196.137C234.03 194.785 234.854 193.407 235.64 192.029C226.819 187.129 225.094 186.733 226.112 185.091C227.123 183.447 227.975 184.49 237.023 189.533C239.901 184.189 239.798 185.52 235.644 183.563C233.93 182.772 235.19 180.148 236.896 181.001C241.016 182.924 240.06 183.845 242.334 178.262C232.108 174.226 232.323 174.492 232 173.751C231.692 173.046 232.028 172.16 232.733 171.844C233.468 171.514 233.122 171.553 243.38 175.602C243.945 174.11 244.484 172.593 244.987 171.08C242.155 170.18 239.672 169.895 240.327 168.062C240.961 166.157 243.382 167.549 245.855 168.354C246.32 166.831 246.757 165.284 247.159 163.744C237.154 161.241 235.779 161.38 236.172 159.548C236.575 157.555 238.487 158.626 247.851 160.945C248.215 159.395 248.551 157.822 248.851 156.257C245.825 155.722 243.584 155.801 243.833 153.935C244.089 151.915 247.258 153.071 249.357 153.44C249.619 151.868 249.852 150.275 250.051 148.689L239.907 147.544C237.931 147.281 238.405 144.464 240.225 144.684L250.373 145.861C250.957 140.139 251.649 141.137 246.866 140.885C244.92 140.754 245.175 137.898 247.027 138.021C251.784 138.273 251.007 139.193 250.986 133.428L240.747 133.619C238.81 133.619 238.837 130.763 240.696 130.719L250.941 130.56C250.896 128.962 250.817 127.35 250.706 125.756C246.493 126.107 246.35 126.249 245.765 125.771C244.761 124.95 245.289 123.336 246.556 123.252C251.112 122.875 250.742 124.156 249.926 118.152C239.749 119.689 238.409 120.396 238.149 118.443C237.898 116.565 239.172 116.857 249.506 115.33Z" fill="#202957"/>
<path fill-rule="evenodd" clip-rule="evenodd" d="M253.081 147.601C238.301 277.26 55.7607 292.586 19.0036 167.898C0.385388 104.741 36.3445 37.8202 100.147 19.0036C182.054 -5.15012 262.815 62.2061 253.081 147.601ZM259.942 115.079C264.012 101.454 261.489 92.8083 250.76 83.1191C251.164 68.9221 246.489 61.2184 233.608 54.6244C230.311 40.7973 223.82 34.5739 209.661 31.5456C202.901 19.0312 195.03 14.7249 180.568 15.4654C170.815 5.10336 162.07 2.98404 148.281 7.42493C136.207 -0.010376 127.193 0.191895 115.052 8.06396C101.431 3.99295 92.787 6.51675 83.1009 17.2479C68.9079 16.8442 61.2058 21.5204 54.6141 34.4055C40.7909 37.7021 34.5691 44.1954 31.5424 58.3586C19.0304 65.0872 14.7256 72.9931 15.4323 87.4592C5.10644 97.2153 2.98792 105.962 7.42723 119.722C-0.00572491 131.833 0.196522 140.849 8.0324 152.994C3.96297 166.618 6.51906 175.265 17.2479 184.953C16.8441 199.15 21.5195 206.855 34.4007 213.448C37.6635 227.275 44.1883 233.499 58.3475 236.527C65.0737 249.041 72.9773 253.347 87.4395 252.608C97.1932 262.969 105.937 265.089 119.694 260.648C131.801 268.083 140.815 267.881 152.956 260.009C166.544 264.079 175.188 261.556 184.908 250.824C199.101 251.228 206.802 246.552 213.394 233.667C227.218 230.37 233.439 223.877 236.466 209.714C248.944 202.985 253.283 195.08 252.543 180.614C262.868 170.858 265.021 162.111 260.547 148.351C268.014 136.24 267.812 127.224 259.942 115.079Z" fill="#1D254D"/>
<path d="M253.081 147.601C238.301 277.26 55.7607 292.586 19.0036 167.898C0.385388 104.741 36.3445 37.8202 100.147 19.0036C182.054 -5.1501 262.815 62.2061 253.081 147.601ZM259.942 115.079C264.012 101.454 261.489 92.8083 250.76 83.1191C251.164 68.9221 246.489 61.2184 233.608 54.6244C230.311 40.7973 223.82 34.5739 209.661 31.5456C202.901 19.0312 195.03 14.7249 180.568 15.4654C170.815 5.10336 162.07 2.98405 148.281 7.42494C136.207 -0.0103784 127.193 0.191883 115.052 8.06397C101.431 3.99296 92.787 6.51676 83.1009 17.2479C68.9079 16.8442 61.2058 21.5204 54.6141 34.4055C40.7909 37.7021 34.5691 44.1954 31.5424 58.3586C19.0304 65.0872 14.7256 72.9931 15.4323 87.4592C5.10644 97.2153 2.98792 105.962 7.42723 119.722C-0.00572496 131.833 0.196522 140.849 8.0324 152.994C3.96297 166.618 6.51906 175.265 17.2479 184.953C16.8441 199.15 21.5195 206.855 34.4007 213.448C37.6635 227.275 44.1883 233.499 58.3475 236.527C65.0737 249.041 72.9773 253.347 87.4395 252.608C97.1932 262.969 105.937 265.089 119.694 260.648C131.801 268.083 140.815 267.881 152.956 260.009C166.544 264.079 175.188 261.556 184.908 250.824C199.101 251.228 206.802 246.552 213.394 233.667C227.218 230.37 233.439 223.877 236.466 209.714C248.944 202.985 253.283 195.08 252.543 180.614C262.868 170.858 265.021 162.111 260.547 148.351C268.014 136.24 267.812 127.224 259.942 115.079V115.079Z" stroke="white" stroke-width="3.43813" stroke-miterlimit="10"/>
<path d="M236.174 134.02C236.174 190.381 190.333 236.235 133.988 236.235C77.66 236.235 31.8346 190.381 31.8346 134.02C31.8346 77.6764 77.66 31.8384 133.988 31.8384C190.333 31.8384 236.174 77.6764 236.174 134.02ZM231.535 92.8091C208.622 38.6127 146.271 13.8136 92.7879 36.4501C38.6104 59.3801 13.8239 121.752 36.4447 175.25C59.3684 229.464 121.715 254.258 175.201 231.622C229.207 208.766 254.211 146.442 231.535 92.8091Z" fill="white"/>
<path d="M134.607 185.278C129.124 220.657 112.835 223.888 112.835 223.888C107.733 224.909 107.733 220.657 107.733 220.657C95.827 223.548 97.5276 215.724 97.5276 215.724C82.7302 219.636 82.5602 210.111 82.5602 210.111C68.1028 216.064 69.9742 205.859 69.9742 205.859C83.754 200.966 96.5967 195.428 104.853 191.689C115.42 186.903 124.087 178.705 129.369 168.376C129.681 167.767 129.844 167.42 129.844 167.42C114.536 168.95 106.882 148.88 106.882 148.88C78.9882 138.669 86.3023 124.388 86.3023 124.388C74.0562 115.544 82.3902 102.957 82.3902 102.957C69.8947 88.6704 82.2203 77.9549 82.2203 77.9549C75.7569 58.0548 85.9615 53.292 85.9615 53.292C90.6543 55.2594 99.8941 79.1818 101.873 84.4262C102.14 85.1369 102.419 85.8404 102.726 86.5345C104.615 90.807 106.661 94.5097 108.738 97.7056C115.02 107.374 124.536 114.448 135.505 118.002C158.099 125.321 158.929 139.705 158.929 139.705C172.025 124.899 181.89 139.705 181.89 139.705L188.353 142.077L183.591 146.329C182.06 148.54 180.53 153.133 180.53 153.133C173.385 199.906 133.756 190.211 133.756 190.211" stroke="white" stroke-width="2.29209" stroke-miterlimit="10"/>
<path d="M133.745 46.9043H135.714V55.4996C135.714 56.9949 135.545 58.1816 135.208 59.0615C134.868 59.9413 134.258 60.6567 133.375 61.2076C132.492 61.7592 131.334 62.0347 129.899 62.0347C128.506 62.0347 127.366 61.7946 126.48 61.3146C125.594 60.8345 124.961 60.1389 124.582 59.2291C124.203 58.3194 124.014 57.076 124.014 55.4996V46.9043H125.983V55.4894C125.983 56.7816 126.103 57.7339 126.343 58.3461C126.583 58.9584 126.995 59.4298 127.581 59.7619C128.166 60.0932 128.882 60.2585 129.727 60.2585C131.175 60.2585 132.207 59.9311 132.822 59.2748C133.438 58.6184 133.745 57.3561 133.745 55.4894V46.9043Z" fill="white"/>
<path d="M141.651 55.672H146.694L145.142 51.5522C144.669 50.3001 144.316 49.2723 144.086 48.4673C143.897 49.4211 143.63 50.3678 143.285 51.3082L141.651 55.672ZM137.358 61.7812L143.072 46.9043H145.193L151.282 61.7812H149.039L147.303 57.275H141.083L139.449 61.7812H137.358Z" fill="white"/>
<path d="M178.218 131.879C184.843 93.8286 201.208 73.2122 204.57 69.3034C205.125 68.6588 205.504 67.875 205.605 67.0306C205.817 65.2646 204.709 64.8145 203.498 64.8239C202.013 64.8357 200.613 65.5227 199.6 66.6088C192.026 74.7295 184.94 84.4337 184.94 84.4337C184.557 80.1289 182.478 79.1602 180.733 79.1366C179.459 79.1193 178.227 79.6206 177.272 80.4642C168.712 88.0199 167.761 99.9119 167.761 99.9119C165.21 96.3398 162.318 100.762 162.318 100.762C153.134 112.668 150.999 121.979 150.999 121.979" stroke="white" stroke-width="2.29209" stroke-miterlimit="10"/>
<path d="M48.4576 131.489L51.9817 128.134L61.988 146.41L58.4632 149.764L53.074 139.922L53.7248 150.462L53.3683 150.801L46.0196 146.677L51.3946 156.493L47.8501 159.867L37.8445 141.591L41.3882 138.218L49.1871 142.669L48.4576 131.489Z" fill="white"/>
<path d="M64.984 135.129L66.0755 138.118L72.0384 134.333L73.8177 139.207L63.916 145.491L56.502 125.182L66.2935 118.967L68.0626 123.812L62.2091 127.527L63.2369 130.341L68.5395 126.976L70.2873 131.764L64.984 135.129Z" fill="white"/>
<path d="M78.1464 131.189L80.4837 130.15C81.5949 129.656 82.3882 128.76 82.8636 127.461C83.3184 126.15 83.3381 124.679 82.9218 123.052C82.5015 121.404 81.8129 120.261 80.8591 119.619C79.8951 118.939 78.8492 118.847 77.7238 119.348L75.3857 120.387L78.1464 131.189ZM69.7786 116.999L76.3742 114.069C78.5958 113.081 80.7253 113.279 82.7628 114.662C84.7995 116.046 86.2027 118.242 86.9723 121.252C87.7467 124.284 87.6404 127.162 86.6536 129.888C85.677 132.589 84.07 134.435 81.8326 135.429L75.2378 138.359L69.7786 116.999Z" fill="white"/>
<path d="M94.7818 114.263L94.3506 122.231L97.7149 121.264L94.7818 114.263ZM105.461 127.439L100.856 128.763L99.6146 125.792L94.0554 127.392L93.865 130.776L89.2368 132.107L91.1027 108.5L96.3039 107.003L105.461 127.439Z" fill="white"/>
<path d="M108.476 104.356L110.147 121.183L115.983 120.175L116.531 125.699L106.361 127.454L104.142 105.104L108.476 104.356Z" fill="white"/>
<path d="M128.092 117.938C129 119.06 130.104 119.608 131.407 119.585C132.709 119.56 133.802 118.973 134.685 117.818C135.553 116.643 135.977 115.165 135.958 113.383C135.939 111.58 135.484 110.129 134.593 109.028C133.703 107.885 132.598 107.325 131.279 107.35C129.96 107.374 128.867 107.973 128 109.149C127.133 110.281 126.709 111.748 126.728 113.551C126.746 115.334 127.201 116.795 128.092 117.938ZM137.779 121.723C136.061 124.008 133.957 125.174 131.466 125.22C128.942 125.265 126.806 124.177 125.058 121.954C123.308 119.711 122.416 116.937 122.382 113.631C122.347 110.325 123.18 107.529 124.883 105.244C126.584 102.938 128.697 101.761 131.22 101.715C133.726 101.669 135.855 102.769 137.604 105.012C139.369 107.234 140.27 109.999 140.304 113.304C140.339 116.588 139.497 119.394 137.779 121.723Z" fill="white"/>
<path d="M153.794 103.372L153.49 108.928L147.376 108.346L147.176 112.007L153.168 112.578L152.864 118.134L146.872 117.564L146.45 125.272L142.09 124.857L143.321 102.376L153.794 103.372Z" fill="white"/>
<path d="M165.739 116.024L167.972 116.566C168.453 116.682 168.887 116.559 169.278 116.195C169.668 115.831 169.911 115.301 170.009 114.605C170.106 113.908 170.02 113.304 169.752 112.791C169.485 112.278 169.111 111.963 168.63 111.848L166.396 111.306L165.739 116.024ZM162.853 104.848L169.385 106.432C171.083 106.843 172.407 107.918 173.356 109.654C174.306 111.39 174.623 113.388 174.308 115.646C173.993 117.906 173.157 119.625 171.801 120.802C170.445 121.978 168.918 122.362 167.221 121.95L164.988 121.408L164.06 128.059L159.761 127.017L162.853 104.848Z" fill="white"/>
<path d="M179.571 123.659L178.901 126.855L185.279 129.182L184.185 134.395L173.593 130.533L178.151 108.808L188.624 112.628L187.537 117.811L181.276 115.528L180.645 118.538L186.317 120.607L185.244 125.727L179.571 123.659Z" fill="white"/>
<path d="M196.797 123.681L193.054 129.962L196.251 131.646L196.797 123.681ZM200.041 142.485L195.665 140.18L195.899 136.801L190.615 134.018L189.02 136.68L184.621 134.362L196.201 116.19L201.144 118.794L200.041 142.485Z" fill="white"/>
<path d="M205.387 147.197C203.844 146.043 202.736 144.647 202.064 143.01C201.392 141.374 201.174 139.63 201.406 137.781L205.729 137.718C205.535 139.867 206.139 141.466 207.541 142.514C208.702 143.382 209.471 143.378 209.849 142.5C210.09 141.939 209.957 141.224 209.452 140.353C209.274 140.071 208.759 139.353 207.908 138.199C206.696 136.578 205.924 135.001 205.591 133.468C205.257 131.937 205.437 130.368 206.127 128.761C206.906 126.95 208.024 125.849 209.484 125.459C210.971 125.09 212.444 125.451 213.903 126.541C215.149 127.473 216.087 128.687 216.717 130.181C217.347 131.676 217.607 133.334 217.499 135.152L213.253 135.235C213.412 133.429 212.953 132.124 211.876 131.32C211.437 130.991 211.047 130.854 210.706 130.908C210.365 130.961 210.11 131.184 209.942 131.576C209.757 132.005 209.774 132.5 209.992 133.058C210.211 133.616 210.738 134.466 211.576 135.611C212.197 136.471 212.666 137.166 212.98 137.697C213.335 138.308 213.664 139.022 213.967 139.841C214.616 141.51 214.518 143.325 213.675 145.286C212.848 147.21 211.685 148.327 210.186 148.637C208.686 148.947 207.087 148.467 205.387 147.197Z" fill="white"/>
<path d="M219.511 148.584L217.937 151.171L223.099 156.633L220.53 160.852L211.96 151.782L222.659 134.203L231.135 143.171L228.582 147.365L223.516 142.004L222.033 144.441L226.624 149.298L224.101 153.441L219.511 148.584Z" fill="white"/>
</svg>
